<svg width="18" height="20" viewBox="0 0 18 20" fill="none" xmlns="http://www.w3.org/2000/svg">
<path d="M11.9738 16.0012C10.7958 15.9186 9.6882 15.4268 8.8552 14.6164C8.02219 13.806 7.51985 12.7316 7.4407 11.5912C7.36156 10.4507 7.71094 9.32094 8.42449 8.41005C9.13803 7.49915 10.1677 6.86846 11.3238 6.63415C11.4455 6.61121 11.5709 6.6146 11.6911 6.64407C11.8113 6.67354 11.9233 6.72837 12.0191 6.80463C12.1148 6.88089 12.1919 6.97669 12.2449 7.08517C12.2979 7.19366 12.3255 7.31214 12.3257 7.43214C12.3261 7.6188 12.2603 7.79994 12.1392 7.94522C12.0181 8.0905 11.8491 8.19109 11.6605 8.23013C11.0957 8.34632 10.5738 8.60783 10.1497 8.98708C9.72571 9.36633 9.41526 9.84927 9.25113 10.385C9.08701 10.9207 9.07528 11.4893 9.21718 12.031C9.35909 12.5726 9.64938 13.0671 10.0574 13.4625C10.4655 13.8578 10.9762 14.1392 11.5358 14.2772C12.0953 14.4151 12.6829 14.4043 13.2367 14.2461C13.7904 14.0878 14.2898 13.7879 14.6822 13.378C15.0745 12.968 15.3453 12.4633 15.466 11.9168C15.5066 11.7345 15.6107 11.5713 15.7608 11.4544C15.9109 11.3374 16.0979 11.2739 16.2906 11.2744C16.4145 11.2744 16.537 11.3009 16.6491 11.352C16.7612 11.4032 16.8602 11.4777 16.939 11.5702C17.0178 11.6628 17.0745 11.7711 17.105 11.8873C17.1354 12.0036 17.1389 12.125 17.1152 12.2427C16.8715 13.3643 16.2167 14.3627 15.2717 15.0535C14.3267 15.7443 13.1553 16.0809 11.9738 16.0012Z" fill="#FFD101"/>
<path d="M12.326 18.2532C12.3258 18.3688 12.3004 18.483 12.2514 18.5884C12.2024 18.6938 12.1309 18.788 12.0415 18.8647C11.9522 18.9415 11.8472 18.9991 11.7332 19.0337C11.6193 19.0684 11.4991 19.0793 11.3804 19.0658C9.41012 18.8384 7.59435 17.9198 6.27694 16.4839C4.95953 15.0479 4.23193 13.1944 4.23193 11.2741C4.23193 9.35389 4.95953 7.50031 6.27694 6.06436C7.59435 4.62842 9.41012 3.7098 11.3804 3.48244C11.499 3.46915 11.6192 3.48023 11.733 3.51497C11.8468 3.54971 11.9518 3.60731 12.0411 3.68402C12.1303 3.76073 12.2019 3.85481 12.2509 3.9601C12.3 4.0654 12.3256 4.17954 12.326 4.29506C12.3264 4.49519 12.2507 4.68846 12.1133 4.83807C11.9759 4.98768 11.7865 5.08317 11.5811 5.10635C10.0175 5.28158 8.57509 6.00684 7.52808 7.14417C6.48107 8.28151 5.90255 9.75158 5.90255 11.2748C5.90255 12.798 6.48107 14.2681 7.52808 15.4054C8.57509 16.5427 10.0175 17.268 11.5811 17.4432C11.7863 17.4664 11.9755 17.5617 12.1128 17.711C12.2502 17.8603 12.326 18.0533 12.326 18.2532Z" fill="#FF5072"/>
<path d="M1.71799 11.2749C1.60148 11.2753 1.48613 11.2525 1.37917 11.2078C1.27221 11.1631 1.17596 11.0975 1.09646 11.015C1.01696 10.9326 0.955928 10.8351 0.917199 10.7288C0.878471 10.6225 0.862881 10.5095 0.871407 10.3971C1.09058 7.761 2.27238 5.28654 4.20513 3.41689C6.13788 1.54724 8.69532 0.40455 11.4194 0.193477C11.5352 0.185251 11.6516 0.200225 11.7612 0.237463C11.8708 0.274701 11.9713 0.333404 12.0564 0.409907C12.1416 0.48641 12.2095 0.579072 12.2559 0.682106C12.3024 0.785141 12.3264 0.896337 12.3265 1.00875C12.326 1.21501 12.245 1.41349 12.0997 1.56442C11.9545 1.71536 11.7556 1.80761 11.5431 1.8227C9.22345 2.00548 7.04645 2.98016 5.4008 4.57271C3.75514 6.16525 2.74796 8.27199 2.55908 10.5168C2.54318 10.7224 2.44775 10.9146 2.29185 11.0551C2.13595 11.1956 1.93104 11.2741 1.71799 11.2749Z" fill="#2BBAE7"/>
</svg>
