<svg width="23" height="24" viewBox="0 0 23 24" fill="none" xmlns="http://www.w3.org/2000/svg">
<path d="M21.4138 1.26804C21.1654 1.09613 20.8866 0.974423 20.5926 0.909605C20.2911 0.842465 19.9802 0.830327 19.6745 0.873762C19.354 0.919035 19.0435 1.01914 18.7563 1.1698L17.4157 1.91852L16.0725 2.66592L14.728 3.41331L13.3849 4.16734C13.0938 4.33967 12.7822 4.47351 12.4575 4.5656C12.1432 4.65783 11.818 4.70607 11.4908 4.70897C11.1642 4.71302 10.8386 4.67238 10.5227 4.58817C10.1968 4.50082 9.88373 4.37049 9.59142 4.20053L8.2889 3.48367L6.98638 2.76681L5.68386 2.0526L4.38003 1.33574C3.89704 1.0237 3.31927 0.897897 2.75221 0.981291C2.22888 1.06364 1.74361 1.30805 1.36312 1.68089C0.979515 2.0489 0.718655 2.52866 0.616763 3.05355C0.512065 3.62268 0.615074 4.21092 0.906649 4.70897L1.36312 5.55593L2.3692 7.41446L3.37527 9.27299L3.83305 10.1199C4.00315 10.4113 4.13541 10.7236 4.22656 11.0492C4.31296 11.3676 4.35708 11.6961 4.35773 12.0263C4.35714 12.3573 4.31303 12.6867 4.22656 13.006C4.14553 13.342 4.0207 13.6657 3.85535 13.9684L3.14048 15.3185L2.42429 16.6646L1.7081 18.0094L0.99191 19.3555C0.871583 19.5762 0.779044 19.8112 0.716453 20.0551C0.657414 20.2856 0.630917 20.5234 0.637751 20.7614C0.646541 20.9951 0.69078 21.2262 0.768921 21.4464C0.847758 21.6772 0.961958 21.894 1.10734 22.0889C1.2844 22.3352 1.50445 22.5466 1.75663 22.7128C2.00726 22.8813 2.28519 23.004 2.57776 23.0752C2.87795 23.1497 3.18879 23.17 3.49595 23.135C3.81639 23.0977 4.12749 23.0019 4.41414 22.8522L5.80847 22.0783L7.2015 21.3056L8.59453 20.5317L9.98755 19.7578C9.56858 19.4532 9.18138 19.1063 8.83194 18.7223C8.48168 18.3364 8.1603 17.9246 7.87047 17.4903C7.57796 17.0549 7.31037 16.6009 7.06246 16.1389C6.84078 15.7274 6.63485 15.3106 6.43678 14.8964C6.787 15.5601 7.54123 16.265 8.52107 16.9726C9.71291 17.8026 10.9549 18.5564 12.2397 19.2294C13.5908 19.9569 14.9773 20.6445 16.1748 21.2525C17.3724 21.8605 18.3877 22.3876 18.9898 22.7898C19.4758 23.081 20.0535 23.1731 20.6045 23.0474C21.1154 22.9187 21.574 22.6319 21.9162 22.2269C22.2744 21.816 22.5073 21.3088 22.5864 20.7667C22.6689 20.1936 22.5521 19.6094 22.2559 19.1139L21.4321 17.6058L19.6285 14.287L17.825 10.9682L17.0104 9.47743C16.8359 9.18009 16.6463 8.89208 16.4424 8.61454C16.2399 8.3422 16.0208 8.08283 15.7866 7.83794C15.5538 7.5941 15.3049 7.36657 15.0415 7.15692C14.7738 6.94359 14.4905 6.75099 14.1942 6.58078C14.6546 6.79318 15.1229 7.01355 15.582 7.25117C16.0445 7.48701 16.4946 7.74712 16.9304 8.03043C17.3656 8.31268 17.7779 8.62964 18.1634 8.97828C18.5523 9.33271 18.9019 9.72886 19.2062 10.1598L19.9473 8.78712L20.6884 7.41446L21.4321 6.03915L22.1732 4.66649C22.2968 4.46014 22.3896 4.23648 22.4487 4.00273C22.5076 3.77088 22.5341 3.53181 22.5274 3.29251C22.5185 3.05095 22.4743 2.81205 22.3962 2.58361C22.3169 2.34978 22.2014 2.13021 22.0539 1.93312C21.8859 1.67092 21.6683 1.4449 21.4138 1.26804ZM4.22525 20.4959C4.24441 20.7765 4.14381 21.0519 3.94893 21.2524C3.75405 21.453 3.48359 21.5593 3.20606 21.5446C2.63883 21.5494 2.17518 21.0878 2.17047 20.5138C2.16576 19.9397 2.62178 19.4705 3.18901 19.4657C3.46613 19.4459 3.73833 19.5474 3.93652 19.7444C4.13471 19.9415 4.23985 20.2151 4.22525 20.4959ZM2.19343 3.54473C2.17427 3.26414 2.27487 2.98869 2.46975 2.78816C2.66462 2.58763 2.93509 2.48126 3.21262 2.49599C3.48987 2.4766 3.76204 2.57842 3.96018 2.77565C4.15832 2.97287 4.26342 3.2466 4.24886 3.52748C4.26802 3.80807 4.16742 4.08352 3.97254 4.28405C3.77766 4.48458 3.5072 4.59095 3.22967 4.57622C2.95242 4.59561 2.68025 4.4938 2.48211 4.29657C2.28397 4.09934 2.17887 3.82562 2.19343 3.54473ZM20.9875 20.464C20.9917 20.8852 20.7447 21.2674 20.3618 21.4323C19.9788 21.5972 19.5354 21.5122 19.2385 21.2171C18.9416 20.9219 18.8498 20.4748 19.0058 20.0843C19.1619 19.6939 19.5351 19.4371 19.9512 19.4338C20.2284 19.414 20.5005 19.5155 20.6987 19.7126C20.8969 19.9096 21.0021 20.1832 20.9875 20.464ZM14.0355 11.6267C13.7325 11.1249 13.2327 10.9284 12.6333 10.935C11.8145 10.9628 11.0904 11.4806 10.791 12.2523C10.4917 13.0241 10.6745 13.9022 11.256 14.4862C10.6062 14.4024 10.0166 14.0587 9.61903 13.5319C9.22145 13.005 9.04899 12.3389 9.14019 11.6824C9.33301 10.3669 10.625 9.34468 11.9236 9.5292C13.0228 9.71771 13.9266 10.5156 14.0328 11.6267H14.0355ZM21.0609 3.45712C21.0467 4.01773 20.5962 4.46615 20.0421 4.47116C19.488 4.47617 19.0296 4.03597 19.0055 3.4757C19.0197 2.91509 19.4702 2.46667 20.0243 2.46166C20.5784 2.45665 21.0368 2.89685 21.0609 3.45712Z" fill="#8FABCF"/>
</svg>
