<svg width="485" height="387" viewBox="0 0 485 387" fill="none" xmlns="http://www.w3.org/2000/svg">
<rect x="0.842102" y="1.375" width="483" height="385" rx="1.5" fill="#EAEAEF" fill-opacity="0.2"/>
<path d="M363.426 164.272C361.051 157.364 358.107 150.721 354.638 144.404C348.767 133.7 341.414 123.932 332.851 115.368C309.688 92.2032 277.688 77.875 242.342 77.875C193.932 77.875 151.798 104.752 130.046 144.404C126.577 150.721 123.633 157.364 121.263 164.272C116.774 177.316 114.342 191.317 114.342 205.884L114.342 294.086C114.342 302.804 121.413 309.875 130.13 309.875H354.554C363.271 309.875 370.342 302.804 370.342 294.086L370.342 205.884C370.342 191.317 367.91 177.316 363.426 164.272Z" fill="url(#paint0_linear_801_7876)" fill-opacity="0.78"/>
<ellipse cx="247.799" cy="296.098" rx="86" ry="6" fill="#ECEFF4"/>
<path d="M257.868 212.758V246.549H211.932V209.405C213.542 207.624 215.388 206.06 217.418 204.757C217.57 204.66 217.724 204.563 217.878 204.469C217.99 204.399 218.105 204.331 218.22 204.263C218.533 204.075 218.851 203.895 219.172 203.723C219.352 203.623 219.535 203.527 219.718 203.435C219.911 203.336 220.101 203.239 220.297 203.148C220.373 203.111 220.448 203.075 220.524 203.041C220.683 202.965 220.843 202.892 221.002 202.819C221.004 202.819 221.007 202.819 221.007 202.819C221.216 202.725 221.425 202.634 221.633 202.547C222.103 202.351 222.581 202.169 223.064 202.002C223.226 201.941 223.387 201.887 223.549 201.834C223.562 201.829 223.575 201.824 223.591 201.821C223.745 201.769 223.902 201.719 224.061 201.672C224.136 201.649 224.215 201.625 224.29 201.602C224.52 201.534 224.75 201.469 224.982 201.406C225.175 201.354 225.371 201.304 225.564 201.257C225.755 201.21 225.943 201.166 226.133 201.124C226.141 201.121 226.149 201.121 226.157 201.119C226.235 201.101 226.313 201.085 226.391 201.069C226.569 201.03 226.749 200.993 226.929 200.96H226.932C227.151 200.918 227.37 200.879 227.589 200.842C227.6 200.839 227.613 200.839 227.623 200.837C229.059 200.602 230.534 200.479 232.034 200.479H235.177C240.115 200.479 244.745 201.8 248.733 204.112C249.469 204.537 250.182 204.997 250.871 205.485C253.629 207.449 256.007 209.92 257.868 212.758Z" fill="#FF5072"/>
<path d="M323.135 246.408H172.464C169.794 246.408 167.631 248.497 167.631 251.075C167.631 253.653 169.794 255.742 172.464 255.742H323.135C325.804 255.742 327.967 253.653 327.967 251.075C327.967 248.5 325.804 246.408 323.135 246.408Z" fill="#C1D4F5"/>
<path d="M262.224 227.592V232.053H235.114V208.799C236.952 207.867 238.288 205.167 238.288 202.004V200.651C242.036 201.087 245.549 202.289 248.671 204.099C249.407 204.524 250.119 204.984 250.808 205.472C253.567 207.436 255.945 209.907 257.806 212.745C260.598 217.01 262.224 222.113 262.224 227.592Z" fill="#FF5072"/>
<path d="M231.972 208.836V232.053H204.862V227.592C204.862 220.588 207.516 214.205 211.869 209.392C213.48 207.611 215.325 206.047 217.356 204.744C220.396 202.79 223.852 201.43 227.561 200.824V202.004C227.561 205.211 229.424 207.943 231.972 208.836Z" fill="#FF5072"/>
<path d="M275.773 203.352V239.32C275.773 243.063 274.256 246.453 271.806 248.907C269.352 251.362 265.964 252.88 262.224 252.88C254.741 252.88 248.676 246.808 248.676 239.32V231.909H262.224V203.352H275.773Z" fill="#FBBC9F" stroke="#271F4D" stroke-width="0.5" stroke-miterlimit="10"/>
<path d="M262.229 232.052V240.992" stroke="#271F4D" stroke-width="0.5" stroke-miterlimit="10" stroke-linecap="round" stroke-linejoin="round"/>
<path d="M277.446 191.819L275.797 203.32H262.227L262.18 181.611C262.18 180.313 263.219 179.197 264.513 179.229C265.121 179.244 265.669 179.495 266.069 179.895C266.481 180.307 266.737 180.877 266.737 181.506V186.199L273.802 187.936C275.968 188.468 277.446 190.041 277.446 191.819Z" fill="#FBBC9F" stroke="#271F4D" stroke-width="0.5" stroke-miterlimit="10"/>
<path d="M266.719 186.199V189.879" stroke="#271F4D" stroke-width="0.5" stroke-miterlimit="10" stroke-linecap="round" stroke-linejoin="round"/>
<path d="M269.905 187.045V194.666" stroke="#271F4D" stroke-miterlimit="10" stroke-linecap="round" stroke-linejoin="round"/>
<path d="M273.306 187.8V195.112" stroke="#271F4D" stroke-width="0.5" stroke-miterlimit="10" stroke-linecap="round" stroke-linejoin="round"/>
<path d="M270.083 199.39L265.171 195.546L266.917 194.885C268.535 194.271 269.266 192.394 268.491 190.845C268.308 190.479 267.911 190.273 267.507 190.33L261.165 191.237C259.244 191.511 258.286 193.718 259.398 195.311L263.182 200.737" fill="#FBBC9F"/>
<path d="M270.083 199.39L265.171 195.546L266.917 194.885C268.535 194.271 269.266 192.394 268.491 190.845C268.308 190.479 267.911 190.273 267.507 190.33L261.165 191.237C259.244 191.511 258.286 193.718 259.398 195.311L263.182 200.737" stroke="#271F4D" stroke-width="0.5" stroke-miterlimit="10" stroke-linecap="round" stroke-linejoin="round"/>
<path d="M312.26 194.895H270.553C269.908 194.895 269.386 194.373 269.386 193.728V151.996C269.386 151.351 269.908 150.828 270.553 150.828H312.26C312.905 150.828 313.427 151.351 313.427 151.996V193.728C313.43 194.373 312.905 194.895 312.26 194.895Z" fill="#C1D4F5" stroke="url(#paint1_linear_801_7876)" stroke-width="0.5" stroke-miterlimit="10"/>
<path d="M269.386 154.915H313.43" stroke="#8FABCF" stroke-width="0.5" stroke-miterlimit="10"/>
<path d="M275.538 150.828V194.895" stroke="#8FABCF" stroke-width="0.5" stroke-miterlimit="10"/>
<path d="M294.288 150.828V194.895" stroke="#8FABCF" stroke-width="0.5" stroke-miterlimit="10"/>
<path d="M272.792 159.008H271.576C271.231 159.008 270.955 158.728 270.955 158.386V157.796C270.955 157.451 271.234 157.174 271.576 157.174H272.792C273.137 157.174 273.413 157.454 273.413 157.796V158.386C273.416 158.728 273.137 159.008 272.792 159.008Z" fill="#8FABCF"/>
<path d="M272.792 162.285H271.576C271.231 162.285 270.955 162.006 270.955 161.664V161.073C270.955 160.729 271.234 160.452 271.576 160.452H272.792C273.137 160.452 273.413 160.731 273.413 161.073V161.664C273.416 162.006 273.137 162.285 272.792 162.285Z" fill="#8FABCF"/>
<path d="M272.792 165.56H271.576C271.231 165.56 270.955 165.281 270.955 164.938V164.348C270.955 164.004 271.234 163.727 271.576 163.727H272.792C273.137 163.727 273.413 164.006 273.413 164.348V164.938C273.416 165.283 273.137 165.56 272.792 165.56Z" fill="#8FABCF"/>
<path d="M272.792 168.837H271.576C271.231 168.837 270.955 168.558 270.955 168.216V167.626C270.955 167.281 271.234 167.004 271.576 167.004H272.792C273.137 167.004 273.413 167.284 273.413 167.626V168.216C273.416 168.558 273.137 168.837 272.792 168.837Z" fill="#8FABCF"/>
<path d="M272.792 172.115H271.576C271.231 172.115 270.955 171.835 270.955 171.493V170.903C270.955 170.558 271.234 170.282 271.576 170.282H272.792C273.137 170.282 273.413 170.561 273.413 170.903V171.493C273.416 171.835 273.137 172.115 272.792 172.115Z" fill="#8FABCF"/>
<path d="M272.792 175.392H271.576C271.231 175.392 270.955 175.113 270.955 174.771V174.181C270.955 173.836 271.234 173.559 271.576 173.559H272.792C273.137 173.559 273.413 173.839 273.413 174.181V174.771C273.416 175.113 273.137 175.392 272.792 175.392Z" fill="#8FABCF"/>
<path d="M272.792 178.667H271.576C271.231 178.667 270.955 178.388 270.955 178.046V177.456C270.955 177.111 271.234 176.834 271.576 176.834H272.792C273.137 176.834 273.413 177.113 273.413 177.456V178.046C273.416 178.39 273.137 178.667 272.792 178.667Z" fill="#8FABCF"/>
<path d="M272.792 181.945H271.576C271.231 181.945 270.955 181.665 270.955 181.323V180.733C270.955 180.388 271.234 180.112 271.576 180.112H272.792C273.137 180.112 273.413 180.391 273.413 180.733V181.323C273.416 181.665 273.137 181.945 272.792 181.945Z" fill="#8FABCF"/>
<path d="M272.792 185.222H271.576C271.231 185.222 270.955 184.943 270.955 184.601V184.011C270.955 183.666 271.234 183.389 271.576 183.389H272.792C273.137 183.389 273.413 183.668 273.413 184.011V184.601C273.416 184.943 273.137 185.222 272.792 185.222Z" fill="#8FABCF"/>
<path d="M304.034 159.008H298.623C298.279 159.008 298.002 158.728 298.002 158.386V157.796C298.002 157.451 298.281 157.174 298.623 157.174H304.034C304.378 157.174 304.655 157.454 304.655 157.796V158.386C304.655 158.728 304.376 159.008 304.034 159.008Z" fill="#8FABCF"/>
<path d="M305.06 162.285H298.623C298.279 162.285 298.002 162.006 298.002 161.664V161.073C298.002 160.729 298.281 160.452 298.623 160.452H305.06C305.404 160.452 305.681 160.731 305.681 161.073V161.664C305.681 162.006 305.404 162.285 305.06 162.285Z" fill="#8FABCF"/>
<path d="M302.301 165.56H298.623C298.279 165.56 298.002 165.281 298.002 164.938V164.348C298.002 164.004 298.281 163.727 298.623 163.727H302.301C302.645 163.727 302.922 164.006 302.922 164.348V164.938C302.922 165.283 302.645 165.56 302.301 165.56Z" fill="#8FABCF"/>
<path d="M305.315 168.837H298.621C298.276 168.837 297.999 168.558 297.999 168.216V167.626C297.999 167.281 298.279 167.004 298.621 167.004H305.315C305.66 167.004 305.936 167.284 305.936 167.626V168.216C305.939 168.558 305.66 168.837 305.315 168.837Z" fill="#8FABCF"/>
<path d="M306.727 172.115H298.623C298.279 172.115 298.002 171.835 298.002 171.493V170.903C298.002 170.558 298.281 170.282 298.623 170.282H306.727C307.072 170.282 307.348 170.561 307.348 170.903V171.493C307.348 171.835 307.072 172.115 306.727 172.115Z" fill="#8FABCF"/>
<path d="M303.264 175.392H298.623C298.279 175.392 298.002 175.113 298.002 174.771V174.181C298.002 173.836 298.281 173.559 298.623 173.559H303.264C303.608 173.559 303.885 173.839 303.885 174.181V174.771C303.885 175.113 303.606 175.392 303.264 175.392Z" fill="#8FABCF"/>
<path d="M309.486 178.667H298.623C298.279 178.667 298.002 178.388 298.002 178.046V177.456C298.002 177.111 298.281 176.834 298.623 176.834H309.486C309.831 176.834 310.107 177.113 310.107 177.456V178.046C310.107 178.39 309.828 178.667 309.486 178.667Z" fill="#8FABCF"/>
<path d="M305.315 181.945H298.621C298.276 181.945 297.999 181.665 297.999 181.323V180.733C297.999 180.388 298.279 180.112 298.621 180.112H305.315C305.66 180.112 305.936 180.391 305.936 180.733V181.323C305.939 181.665 305.66 181.945 305.315 181.945Z" fill="#8FABCF"/>
<path d="M307.432 185.222H298.621C298.276 185.222 297.999 184.943 297.999 184.601V184.011C297.999 183.666 298.279 183.389 298.621 183.389H307.432C307.777 183.389 308.053 183.668 308.053 184.011V184.601C308.056 184.943 307.777 185.222 307.432 185.222Z" fill="#8FABCF"/>
<path d="M288.977 159.008H279.153C278.808 159.008 278.531 158.728 278.531 158.386V157.796C278.531 157.451 278.811 157.174 279.153 157.174H284.065H288.977C289.321 157.174 289.598 157.454 289.598 157.796V158.386C289.6 158.728 289.321 159.008 288.977 159.008Z" fill="#8FABCF"/>
<path d="M286.226 162.285H279.153C278.808 162.285 278.531 162.006 278.531 161.664V161.073C278.531 160.729 278.811 160.452 279.153 160.452H286.226C286.57 160.452 286.847 160.731 286.847 161.073V161.664C286.85 162.006 286.57 162.285 286.226 162.285Z" fill="#8FABCF"/>
<path d="M288.977 165.56H279.153C278.808 165.56 278.531 165.281 278.531 164.938V164.348C278.531 164.004 278.811 163.727 279.153 163.727H288.977C289.321 163.727 289.598 164.006 289.598 164.348V164.938C289.6 165.283 289.321 165.56 288.977 165.56Z" fill="#8FABCF"/>
<path d="M287.995 168.837H279.153C278.808 168.837 278.531 168.558 278.531 168.216V167.626C278.531 167.281 278.811 167.004 279.153 167.004H287.995C288.34 167.004 288.617 167.284 288.617 167.626V168.216C288.617 168.558 288.34 168.837 287.995 168.837Z" fill="#8FABCF"/>
<path d="M285.049 172.115H279.155C278.811 172.115 278.534 171.835 278.534 171.493V170.903C278.534 170.558 278.813 170.282 279.155 170.282H285.049C285.393 170.282 285.67 170.561 285.67 170.903V171.493C285.67 171.835 285.391 172.115 285.049 172.115Z" fill="#8FABCF"/>
<path d="M288.977 175.392H279.153C278.808 175.392 278.531 175.113 278.531 174.771V174.181C278.531 173.836 278.811 173.559 279.153 173.559H288.977C289.321 173.559 289.598 173.839 289.598 174.181V174.771C289.6 175.113 289.321 175.392 288.977 175.392Z" fill="#8FABCF"/>
<path d="M287.601 178.667H279.153C278.808 178.667 278.531 178.388 278.531 178.046V177.456C278.531 177.111 278.811 176.834 279.153 176.834H287.601C287.946 176.834 288.222 177.113 288.222 177.456V178.046C288.225 178.39 287.946 178.667 287.601 178.667Z" fill="#8FABCF"/>
<path d="M287.995 181.945H279.153C278.808 181.945 278.531 181.665 278.531 181.323V180.733C278.531 180.388 278.811 180.112 279.153 180.112H287.995C288.34 180.112 288.617 180.391 288.617 180.733V181.323C288.617 181.665 288.34 181.945 287.995 181.945Z" fill="#8FABCF"/>
<path d="M288.977 185.222H279.153C278.808 185.222 278.531 184.943 278.531 184.601V184.011C278.531 183.666 278.811 183.389 279.153 183.389H288.977C289.321 183.389 289.598 183.668 289.598 184.011V184.601C289.6 184.943 289.321 185.222 288.977 185.222Z" fill="#8FABCF"/>
<path d="M324.722 216.607H299.599C299.211 216.607 298.897 216.292 298.897 215.904V190.799C298.897 190.411 299.211 190.097 299.599 190.097H324.722C325.11 190.097 325.424 190.411 325.424 190.799V215.904C325.426 216.292 325.11 216.607 324.722 216.607Z" fill="url(#paint2_linear_801_7876)" stroke="url(#paint3_linear_801_7876)" stroke-width="0.5" stroke-miterlimit="10"/>
<path d="M298.897 192.555H325.426" stroke="#8FABCF" stroke-width="0.5" stroke-miterlimit="10"/>
<path d="M302.602 190.097V216.607" stroke="url(#paint4_linear_801_7876)" stroke-width="0.5" stroke-miterlimit="10"/>
<path d="M313.896 190.097V216.607" stroke="url(#paint5_linear_801_7876)" stroke-width="0.5" stroke-miterlimit="10"/>
<path d="M300.948 195.017H300.216C300.008 195.017 299.841 194.849 299.841 194.643V194.288C299.841 194.081 300.01 193.914 300.216 193.914H300.948C301.156 193.914 301.322 194.083 301.322 194.288V194.643C301.324 194.849 301.156 195.017 300.948 195.017Z" fill="#8FABCF"/>
<path d="M300.948 196.989H300.216C300.008 196.989 299.841 196.821 299.841 196.615V196.26C299.841 196.053 300.01 195.886 300.216 195.886H300.948C301.156 195.886 301.322 196.054 301.322 196.26V196.615C301.324 196.821 301.156 196.989 300.948 196.989Z" fill="#8FABCF"/>
<path d="M300.948 198.959H300.216C300.008 198.959 299.841 198.791 299.841 198.585V198.23C299.841 198.023 300.01 197.856 300.216 197.856H300.948C301.156 197.856 301.322 198.024 301.322 198.23V198.585C301.324 198.793 301.156 198.959 300.948 198.959Z" fill="#8FABCF"/>
<path d="M300.948 200.931H300.216C300.008 200.931 299.841 200.763 299.841 200.557V200.202C299.841 199.994 300.01 199.828 300.216 199.828H300.948C301.156 199.828 301.322 199.996 301.322 200.202V200.557C301.324 200.763 301.156 200.931 300.948 200.931Z" fill="#8FABCF"/>
<path d="M300.948 202.902H300.216C300.008 202.902 299.841 202.734 299.841 202.528V202.173C299.841 201.966 300.01 201.799 300.216 201.799H300.948C301.156 201.799 301.322 201.968 301.322 202.173V202.528C301.324 202.734 301.156 202.902 300.948 202.902Z" fill="#8FABCF"/>
<path d="M300.948 204.874H300.216C300.008 204.874 299.841 204.706 299.841 204.5V204.145C299.841 203.938 300.01 203.771 300.216 203.771H300.948C301.156 203.771 301.322 203.939 301.322 204.145V204.5C301.324 204.706 301.156 204.874 300.948 204.874Z" fill="#8FABCF"/>
<path d="M300.948 206.844H300.216C300.008 206.844 299.841 206.676 299.841 206.47V206.115C299.841 205.908 300.01 205.741 300.216 205.741H300.948C301.156 205.741 301.322 205.909 301.322 206.115V206.47C301.324 206.678 301.156 206.844 300.948 206.844Z" fill="#8FABCF"/>
<path d="M300.948 208.816H300.216C300.008 208.816 299.841 208.648 299.841 208.442V208.087C299.841 207.879 300.01 207.713 300.216 207.713H300.948C301.156 207.713 301.322 207.881 301.322 208.087V208.442C301.324 208.648 301.156 208.816 300.948 208.816Z" fill="#8FABCF"/>
<path d="M300.948 210.787H300.216C300.008 210.787 299.841 210.619 299.841 210.414V210.058C299.841 209.851 300.01 209.685 300.216 209.685H300.948C301.156 209.685 301.322 209.853 301.322 210.058V210.414C301.324 210.619 301.156 210.787 300.948 210.787Z" fill="#8FABCF"/>
<path d="M319.766 195.017H316.507C316.3 195.017 316.133 194.849 316.133 194.643V194.288C316.133 194.081 316.301 193.914 316.507 193.914H319.766C319.974 193.914 320.14 194.083 320.14 194.288V194.643C320.14 194.849 319.972 195.017 319.766 195.017Z" fill="#8FABCF"/>
<path d="M320.384 196.989H316.507C316.3 196.989 316.133 196.821 316.133 196.615V196.26C316.133 196.053 316.301 195.886 316.507 195.886H320.384C320.592 195.886 320.758 196.054 320.758 196.26V196.615C320.758 196.821 320.592 196.989 320.384 196.989Z" fill="#8FABCF"/>
<path d="M318.722 198.959H316.507C316.3 198.959 316.133 198.791 316.133 198.585V198.23C316.133 198.023 316.301 197.856 316.507 197.856H318.722C318.93 197.856 319.097 198.024 319.097 198.23V198.585C319.097 198.793 318.93 198.959 318.722 198.959Z" fill="#8FABCF"/>
<path d="M320.538 200.931H316.506C316.298 200.931 316.132 200.763 316.132 200.557V200.202C316.132 199.994 316.3 199.828 316.506 199.828H320.538C320.746 199.828 320.912 199.996 320.912 200.202V200.557C320.914 200.763 320.746 200.931 320.538 200.931Z" fill="#8FABCF"/>
<path d="M321.389 202.902H316.507C316.3 202.902 316.133 202.734 316.133 202.528V202.173C316.133 201.966 316.301 201.799 316.507 201.799H321.389C321.596 201.799 321.763 201.968 321.763 202.173V202.528C321.763 202.734 321.596 202.902 321.389 202.902Z" fill="#8FABCF"/>
<path d="M319.303 204.874H316.507C316.3 204.874 316.133 204.706 316.133 204.5V204.145C316.133 203.938 316.301 203.771 316.507 203.771H319.303C319.51 203.771 319.677 203.939 319.677 204.145V204.5C319.677 204.706 319.509 204.874 319.303 204.874Z" fill="#8FABCF"/>
<path d="M323.05 206.844H316.507C316.3 206.844 316.133 206.676 316.133 206.47V206.115C316.133 205.908 316.301 205.741 316.507 205.741H323.05C323.258 205.741 323.425 205.909 323.425 206.115V206.47C323.425 206.678 323.256 206.844 323.05 206.844Z" fill="#8FABCF"/>
<path d="M320.538 208.816H316.506C316.298 208.816 316.132 208.648 316.132 208.442V208.087C316.132 207.879 316.3 207.713 316.506 207.713H320.538C320.746 207.713 320.912 207.881 320.912 208.087V208.442C320.914 208.648 320.746 208.816 320.538 208.816Z" fill="#8FABCF"/>
<path d="M321.813 210.787H316.506C316.298 210.787 316.132 210.619 316.132 210.414V210.058C316.132 209.851 316.3 209.685 316.506 209.685H321.813C322.021 209.685 322.187 209.853 322.187 210.058V210.414C322.189 210.619 322.021 210.787 321.813 210.787Z" fill="#8FABCF"/>
<path d="M310.697 195.017H304.779C304.572 195.017 304.405 194.849 304.405 194.643V194.288C304.405 194.081 304.573 193.914 304.779 193.914H307.738H310.697C310.904 193.914 311.071 194.083 311.071 194.288V194.643C311.073 194.849 310.904 195.017 310.697 195.017Z" fill="#8FABCF"/>
<path d="M309.04 196.989H304.779C304.572 196.989 304.405 196.821 304.405 196.615V196.26C304.405 196.053 304.573 195.886 304.779 195.886H309.04C309.247 195.886 309.414 196.054 309.414 196.26V196.615C309.416 196.821 309.247 196.989 309.04 196.989Z" fill="#8FABCF"/>
<path d="M310.697 198.959H304.779C304.572 198.959 304.405 198.791 304.405 198.585V198.23C304.405 198.023 304.573 197.856 304.779 197.856H310.697C310.904 197.856 311.071 198.024 311.071 198.23V198.585C311.073 198.793 310.904 198.959 310.697 198.959Z" fill="#8FABCF"/>
<path d="M310.106 200.931H304.779C304.572 200.931 304.405 200.763 304.405 200.557V200.202C304.405 199.994 304.573 199.828 304.779 199.828H310.106C310.313 199.828 310.48 199.996 310.48 200.202V200.557C310.48 200.763 310.313 200.931 310.106 200.931Z" fill="#8FABCF"/>
<path d="M308.331 202.902H304.781C304.573 202.902 304.407 202.734 304.407 202.528V202.173C304.407 201.966 304.575 201.799 304.781 201.799H308.331C308.538 201.799 308.705 201.968 308.705 202.173V202.528C308.705 202.734 308.537 202.902 308.331 202.902Z" fill="#8FABCF"/>
<path d="M310.697 204.874H304.779C304.572 204.874 304.405 204.706 304.405 204.5V204.145C304.405 203.938 304.573 203.771 304.779 203.771H310.697C310.904 203.771 311.071 203.939 311.071 204.145V204.5C311.073 204.706 310.904 204.874 310.697 204.874Z" fill="#8FABCF"/>
<path d="M309.868 206.844H304.779C304.572 206.844 304.405 206.676 304.405 206.47V206.115C304.405 205.908 304.573 205.741 304.779 205.741H309.868C310.076 205.741 310.242 205.909 310.242 206.115V206.47C310.244 206.678 310.076 206.844 309.868 206.844Z" fill="#8FABCF"/>
<path d="M310.106 208.816H304.779C304.572 208.816 304.405 208.648 304.405 208.442V208.087C304.405 207.879 304.573 207.713 304.779 207.713H310.106C310.313 207.713 310.48 207.881 310.48 208.087V208.442C310.48 208.648 310.313 208.816 310.106 208.816Z" fill="#8FABCF"/>
<path d="M310.697 210.787H304.779C304.572 210.787 304.405 210.619 304.405 210.414V210.058C304.405 209.851 304.573 209.685 304.779 209.685H310.697C310.904 209.685 311.071 209.853 311.071 210.058V210.414C311.073 210.619 310.904 210.787 310.697 210.787Z" fill="#8FABCF"/>
<path d="M306.316 234.521H289.098C288.832 234.521 288.617 234.305 288.617 234.039V216.833C288.617 216.567 288.832 216.352 289.098 216.352H306.316C306.582 216.352 306.797 216.567 306.797 216.833V234.039C306.799 234.305 306.582 234.521 306.316 234.521Z" fill="url(#paint6_linear_801_7876)" stroke="url(#paint7_linear_801_7876)" stroke-width="0.5" stroke-miterlimit="10"/>
<path d="M288.617 218.037H306.799" stroke="#8FABCF" stroke-width="0.5" stroke-miterlimit="10"/>
<path d="M291.156 216.352V234.521" stroke="url(#paint8_linear_801_7876)" stroke-width="0.5" stroke-miterlimit="10"/>
<path d="M298.896 216.352V234.521" stroke="url(#paint9_linear_801_7876)" stroke-width="0.5" stroke-miterlimit="10"/>
<path d="M290.023 219.724H289.52C289.378 219.724 289.264 219.609 289.264 219.468V219.225C289.264 219.083 289.379 218.968 289.52 218.968H290.023C290.165 218.968 290.279 219.084 290.279 219.225V219.468C290.28 219.609 290.165 219.724 290.023 219.724Z" fill="#8FABCF"/>
<path d="M290.023 221.075H289.52C289.378 221.075 289.264 220.96 289.264 220.819V220.576C289.264 220.434 289.379 220.32 289.52 220.32H290.023C290.165 220.32 290.279 220.435 290.279 220.576V220.819C290.28 220.96 290.165 221.075 290.023 221.075Z" fill="#8FABCF"/>
<path d="M290.023 222.426H289.52C289.378 222.426 289.264 222.311 289.264 222.169V221.926C289.264 221.784 289.379 221.67 289.52 221.67H290.023C290.165 221.67 290.279 221.785 290.279 221.926V222.169C290.28 222.312 290.165 222.426 290.023 222.426Z" fill="#8FABCF"/>
<path d="M290.023 223.777H289.52C289.378 223.777 289.264 223.662 289.264 223.521V223.277C289.264 223.135 289.379 223.021 289.52 223.021H290.023C290.165 223.021 290.279 223.136 290.279 223.277V223.521C290.28 223.662 290.165 223.777 290.023 223.777Z" fill="#8FABCF"/>
<path d="M290.023 225.128H289.52C289.378 225.128 289.264 225.013 289.264 224.872V224.629C289.264 224.487 289.379 224.372 289.52 224.372H290.023C290.165 224.372 290.279 224.488 290.279 224.629V224.872C290.28 225.013 290.165 225.128 290.023 225.128Z" fill="#8FABCF"/>
<path d="M290.023 226.48H289.52C289.378 226.48 289.264 226.364 289.264 226.223V225.98C289.264 225.838 289.379 225.724 289.52 225.724H290.023C290.165 225.724 290.279 225.839 290.279 225.98V226.223C290.28 226.364 290.165 226.48 290.023 226.48Z" fill="#8FABCF"/>
<path d="M290.023 227.83H289.52C289.378 227.83 289.264 227.715 289.264 227.574V227.33C289.264 227.188 289.379 227.074 289.52 227.074H290.023C290.165 227.074 290.279 227.189 290.279 227.33V227.574C290.28 227.716 290.165 227.83 290.023 227.83Z" fill="#8FABCF"/>
<path d="M290.023 229.181H289.52C289.378 229.181 289.264 229.066 289.264 228.925V228.681C289.264 228.539 289.379 228.425 289.52 228.425H290.023C290.165 228.425 290.279 228.54 290.279 228.681V228.925C290.28 229.066 290.165 229.181 290.023 229.181Z" fill="#8FABCF"/>
<path d="M290.023 230.532H289.52C289.378 230.532 289.264 230.417 289.264 230.276V230.033C289.264 229.891 289.379 229.776 289.52 229.776H290.023C290.165 229.776 290.279 229.892 290.279 230.033V230.276C290.28 230.417 290.165 230.532 290.023 230.532Z" fill="#8FABCF"/>
<path d="M302.92 219.724H300.686C300.544 219.724 300.43 219.609 300.43 219.468V219.225C300.43 219.083 300.545 218.968 300.686 218.968H302.92C303.062 218.968 303.176 219.084 303.176 219.225V219.468C303.176 219.609 303.061 219.724 302.92 219.724Z" fill="#8FABCF"/>
<path d="M303.343 221.075H300.686C300.544 221.075 300.43 220.96 300.43 220.819V220.576C300.43 220.434 300.545 220.32 300.686 220.32H303.343C303.485 220.32 303.6 220.435 303.6 220.576V220.819C303.6 220.96 303.485 221.075 303.343 221.075Z" fill="#8FABCF"/>
<path d="M302.204 222.426H300.686C300.544 222.426 300.43 222.311 300.43 222.169V221.926C300.43 221.784 300.545 221.67 300.686 221.67H302.204C302.346 221.67 302.461 221.785 302.461 221.926V222.169C302.461 222.312 302.346 222.426 302.204 222.426Z" fill="#8FABCF"/>
<path d="M303.449 223.777H300.685C300.543 223.777 300.429 223.662 300.429 223.521V223.277C300.429 223.135 300.544 223.021 300.685 223.021H303.449C303.591 223.021 303.705 223.136 303.705 223.277V223.521C303.706 223.662 303.591 223.777 303.449 223.777Z" fill="#8FABCF"/>
<path d="M304.032 225.128H300.686C300.544 225.128 300.43 225.013 300.43 224.872V224.629C300.43 224.487 300.545 224.372 300.686 224.372H304.032C304.174 224.372 304.288 224.488 304.288 224.629V224.872C304.288 225.013 304.174 225.128 304.032 225.128Z" fill="#8FABCF"/>
<path d="M302.602 226.48H300.686C300.544 226.48 300.43 226.364 300.43 226.223V225.98C300.43 225.838 300.545 225.724 300.686 225.724H302.602C302.744 225.724 302.858 225.839 302.858 225.98V226.223C302.858 226.364 302.743 226.48 302.602 226.48Z" fill="#8FABCF"/>
<path d="M305.17 227.83H300.686C300.544 227.83 300.43 227.715 300.43 227.574V227.33C300.43 227.188 300.545 227.074 300.686 227.074H305.17C305.313 227.074 305.427 227.189 305.427 227.33V227.574C305.427 227.716 305.312 227.83 305.17 227.83Z" fill="#8FABCF"/>
<path d="M303.449 229.181H300.685C300.543 229.181 300.429 229.066 300.429 228.925V228.681C300.429 228.539 300.544 228.425 300.685 228.425H303.449C303.591 228.425 303.705 228.54 303.705 228.681V228.925C303.706 229.066 303.591 229.181 303.449 229.181Z" fill="#8FABCF"/>
<path d="M304.323 230.532H300.685C300.543 230.532 300.429 230.417 300.429 230.276V230.033C300.429 229.891 300.544 229.776 300.685 229.776H304.323C304.465 229.776 304.579 229.892 304.579 230.033V230.276C304.58 230.417 304.465 230.532 304.323 230.532Z" fill="#8FABCF"/>
<path d="M296.704 219.724H292.648C292.506 219.724 292.392 219.609 292.392 219.468V219.225C292.392 219.083 292.507 218.968 292.648 218.968H294.676H296.704C296.846 218.968 296.96 219.084 296.96 219.225V219.468C296.961 219.609 296.846 219.724 296.704 219.724Z" fill="#8FABCF"/>
<path d="M295.568 221.075H292.648C292.506 221.075 292.392 220.96 292.392 220.819V220.576C292.392 220.434 292.507 220.32 292.648 220.32H295.568C295.71 220.32 295.825 220.435 295.825 220.576V220.819C295.826 220.96 295.71 221.075 295.568 221.075Z" fill="#8FABCF"/>
<path d="M296.704 222.426H292.648C292.506 222.426 292.392 222.311 292.392 222.169V221.926C292.392 221.784 292.507 221.67 292.648 221.67H296.704C296.846 221.67 296.96 221.785 296.96 221.926V222.169C296.961 222.312 296.846 222.426 296.704 222.426Z" fill="#8FABCF"/>
<path d="M296.299 223.777H292.648C292.506 223.777 292.392 223.662 292.392 223.521V223.277C292.392 223.135 292.507 223.021 292.648 223.021H296.299C296.441 223.021 296.555 223.136 296.555 223.277V223.521C296.555 223.662 296.441 223.777 296.299 223.777Z" fill="#8FABCF"/>
<path d="M295.082 225.128H292.649C292.507 225.128 292.393 225.013 292.393 224.872V224.629C292.393 224.487 292.508 224.372 292.649 224.372H295.082C295.225 224.372 295.339 224.488 295.339 224.629V224.872C295.339 225.013 295.223 225.128 295.082 225.128Z" fill="#8FABCF"/>
<path d="M296.704 226.48H292.648C292.506 226.48 292.392 226.364 292.392 226.223V225.98C292.392 225.838 292.507 225.724 292.648 225.724H296.704C296.846 225.724 296.96 225.839 296.96 225.98V226.223C296.961 226.364 296.846 226.48 296.704 226.48Z" fill="#8FABCF"/>
<path d="M296.136 227.83H292.648C292.506 227.83 292.392 227.715 292.392 227.574V227.33C292.392 227.188 292.507 227.074 292.648 227.074H296.136C296.278 227.074 296.392 227.189 296.392 227.33V227.574C296.394 227.716 296.278 227.83 296.136 227.83Z" fill="#8FABCF"/>
<path d="M296.299 229.181H292.648C292.506 229.181 292.392 229.066 292.392 228.925V228.681C292.392 228.539 292.507 228.425 292.648 228.425H296.299C296.441 228.425 296.555 228.54 296.555 228.681V228.925C296.555 229.066 296.441 229.181 296.299 229.181Z" fill="#8FABCF"/>
<path d="M296.704 230.532H292.648C292.506 230.532 292.392 230.417 292.392 230.276V230.033C292.392 229.891 292.507 229.776 292.648 229.776H296.704C296.846 229.776 296.96 229.892 296.96 230.033V230.276C296.961 230.417 296.846 230.532 296.704 230.532Z" fill="#8FABCF"/>
<path d="M248.67 177.017V184.311C248.67 184.439 248.668 184.564 248.665 184.692C248.663 184.765 248.66 184.838 248.657 184.912C248.652 185.003 248.65 185.092 248.642 185.181V185.183C248.637 185.29 248.629 185.392 248.618 185.497C248.618 185.504 248.616 185.512 248.616 185.52C248.608 185.622 248.597 185.724 248.587 185.823C248.584 185.839 248.582 185.857 248.582 185.873C248.579 185.883 248.579 185.894 248.576 185.904C248.571 185.954 248.563 186.006 248.558 186.055C248.558 186.063 248.556 186.074 248.556 186.082C248.55 186.118 248.545 186.152 248.54 186.189V186.191C248.537 186.207 248.537 186.22 248.535 186.233C248.532 186.249 248.529 186.267 248.527 186.283V186.291C248.527 186.296 248.524 186.301 248.524 186.306C248.524 186.309 248.524 186.309 248.522 186.311V186.319C248.524 186.322 248.522 186.322 248.522 186.324C248.522 186.34 248.519 186.358 248.514 186.374C248.493 186.51 248.472 186.643 248.446 186.776C248.422 186.909 248.396 187.04 248.368 187.171V187.176C248.339 187.306 248.31 187.437 248.276 187.565C248.263 187.62 248.25 187.675 248.235 187.729C248.216 187.805 248.195 187.878 248.175 187.954C248.146 188.061 248.115 188.168 248.081 188.273C248.075 188.296 248.068 188.317 248.062 188.338C248.026 188.45 247.989 188.565 247.953 188.677C247.914 188.79 247.874 188.899 247.833 189.012C247.809 189.077 247.783 189.145 247.757 189.21C247.726 189.294 247.692 189.377 247.658 189.461C247.624 189.547 247.587 189.633 247.548 189.719C247.512 189.806 247.475 189.889 247.433 189.975C247.431 189.986 247.425 189.996 247.42 190.007C247.415 190.02 247.407 190.033 247.402 190.046C247.397 190.056 247.392 190.067 247.386 190.077C247.342 190.171 247.298 190.265 247.251 190.357C247.243 190.378 247.232 190.396 247.222 190.417C247.164 190.532 247.107 190.644 247.044 190.756C247.039 190.767 247.034 190.777 247.029 190.788C246.984 190.869 246.94 190.947 246.896 191.025C246.859 191.093 246.82 191.158 246.781 191.224C246.697 191.365 246.611 191.503 246.522 191.642C246.442 191.77 246.358 191.895 246.269 192.02C246.17 192.166 246.066 192.313 245.959 192.454C245.922 192.506 245.883 192.556 245.841 192.608C245.784 192.684 245.726 192.757 245.666 192.83C245.635 192.872 245.601 192.913 245.565 192.955C245.549 192.976 245.533 192.994 245.512 193.015C245.497 193.036 245.476 193.06 245.458 193.081C245.458 193.083 245.458 193.083 245.455 193.086C245.439 193.107 245.424 193.125 245.405 193.143C245.392 193.159 245.379 193.175 245.366 193.19C245.298 193.269 245.23 193.347 245.16 193.423C245.074 193.519 244.985 193.616 244.894 193.71C244.81 193.799 244.724 193.885 244.638 193.971C244.62 193.987 244.604 194.005 244.586 194.021C244.507 194.099 244.429 194.175 244.348 194.25C244.343 194.253 244.338 194.258 244.333 194.264C244.239 194.35 244.145 194.433 244.051 194.517C243.939 194.616 243.826 194.713 243.709 194.807C243.657 194.849 243.604 194.893 243.55 194.935C243.471 195 243.393 195.06 243.31 195.123C243.299 195.131 243.286 195.141 243.276 195.149C243.265 195.157 243.255 195.165 243.244 195.172C243.226 195.185 243.208 195.201 243.189 195.214C243.174 195.227 243.156 195.238 243.14 195.251C243.124 195.264 243.106 195.277 243.085 195.29C242.949 195.389 242.811 195.486 242.673 195.58C242.61 195.624 242.547 195.666 242.485 195.705C242.406 195.757 242.328 195.807 242.25 195.857C242.158 195.914 242.067 195.969 241.973 196.024C241.55 196.274 241.112 196.499 240.66 196.7L240.269 196.619H240.266L238.831 196.319V172.632C238.849 172.632 238.865 172.63 238.88 172.63C239.05 172.624 239.152 172.622 239.173 172.622V172.619C239.154 172.504 239.134 172.376 239.107 172.238C239.107 172.233 239.107 172.225 239.105 172.22C239.084 172.086 239.058 171.945 239.032 171.794C239.019 171.715 239.003 171.635 238.99 171.551C238.961 171.384 238.93 171.209 238.899 171.029C238.875 170.906 238.854 170.781 238.831 170.653V167.665L240.914 172.562L242.555 172.504H242.56C244.836 172.567 248.67 173.233 248.67 177.017Z" fill="#271F4D"/>
<path d="M250.046 180.02C249.834 180.707 249.688 181.537 249.688 182.692C249.688 184.102 249.811 184.93 249.973 185.578C249.798 185.724 249.61 185.852 249.409 185.964C249.534 184.87 249.626 183.739 249.673 182.548C249.709 181.611 249.743 180.697 249.782 179.806C249.874 179.871 249.962 179.942 250.046 180.018V180.02Z" fill="#271F4D"/>
<path d="M238.288 186.251V201.599C238.288 204.762 236.952 207.462 235.114 208.395C234.668 208.622 234.193 208.745 233.702 208.745H232.147C231.966 208.745 231.792 208.729 231.619 208.697H231.617C231.34 208.645 231.071 208.556 230.813 208.431C229.552 207.833 228.521 206.407 227.978 204.566C227.976 204.561 227.973 204.556 227.973 204.548C227.707 203.649 227.561 202.649 227.561 201.599V198.562L227.587 198.614C227.595 198.523 227.61 198.426 227.629 198.324C227.814 197.403 228.023 196.7 228.237 196.118C228.239 196.11 228.242 196.102 228.245 196.094C228.944 194.18 229.667 193.53 229.667 190.393C229.667 189.189 229.508 188.338 229.281 187.633C229.27 187.604 229.263 187.575 229.252 187.547C229.276 187.565 229.302 187.583 229.325 187.599C230.479 188.432 231.766 188.897 233.12 188.897C233.457 188.897 233.788 188.868 234.114 188.808C234.389 188.761 234.66 188.693 234.926 188.604C236.09 188.223 237.168 187.479 238.108 186.45C238.17 186.384 238.23 186.319 238.288 186.251Z" fill="#FBBC9F" stroke="#271F4D" stroke-width="0.5" stroke-miterlimit="10"/>
<path d="M243.189 193.289V195.251C241.788 196.287 240.18 197.058 238.437 197.491C238.387 197.504 238.337 197.517 238.288 197.528C237.278 197.768 236.223 197.896 235.14 197.896H235.091C235.004 197.896 234.921 197.896 234.835 197.894C234.686 197.891 234.537 197.886 234.389 197.878C232.165 197.758 230.077 197.128 228.245 196.094C228.944 194.18 229.667 193.53 229.667 190.393C229.667 189.189 229.508 188.338 229.281 187.633C229.296 187.62 229.309 187.607 229.325 187.599C230.523 186.685 232.013 186.144 233.626 186.144H236.048C236.764 186.144 237.455 186.251 238.108 186.45C238.168 186.468 238.228 186.486 238.288 186.51C238.473 186.567 238.653 186.635 238.831 186.711C239.862 187.152 240.773 187.829 241.488 188.675C241.663 188.879 241.824 189.093 241.973 189.315C242.741 190.451 243.189 191.819 243.189 193.289Z" fill="#ED937D"/>
<path d="M248.67 179.258V184.311C248.67 184.439 248.668 184.564 248.665 184.692C248.663 184.765 248.66 184.838 248.657 184.912C248.652 185.003 248.65 185.092 248.642 185.181V185.183C248.637 185.29 248.629 185.392 248.618 185.497C248.618 185.504 248.616 185.512 248.616 185.52C248.608 185.622 248.597 185.724 248.587 185.823C248.584 185.839 248.582 185.857 248.582 185.873C248.579 185.883 248.579 185.893 248.577 185.904C248.571 185.954 248.563 186.006 248.558 186.055C248.558 186.063 248.556 186.074 248.556 186.082C248.55 186.118 248.545 186.152 248.54 186.189V186.191C248.537 186.207 248.537 186.22 248.535 186.233C248.532 186.249 248.53 186.267 248.527 186.283V186.29C248.527 186.296 248.524 186.301 248.524 186.306C248.524 186.309 248.524 186.309 248.524 186.311H248.522V186.314C248.24 186.384 247.942 186.421 247.637 186.421C245.619 186.421 243.983 184.784 243.983 182.765C243.983 182.29 244.074 181.838 244.239 181.423C244.523 180.699 245.032 180.088 245.682 179.678C246.246 179.318 246.917 179.109 247.637 179.109C247.997 179.109 248.342 179.161 248.67 179.258Z" fill="#FBBC9F" stroke="#271F4D" stroke-miterlimit="10"/>
<path d="M251.544 182.765C251.544 183.896 251.03 184.906 250.226 185.578C250.051 185.724 249.863 185.852 249.662 185.964C249.788 184.87 249.879 183.739 249.926 182.548C249.962 181.611 249.996 180.697 250.035 179.806C250.127 179.871 250.216 179.942 250.299 180.018V180.02C251.061 180.686 251.544 181.671 251.544 182.765Z" fill="#FBBC9F" stroke="#271F4D" stroke-width="0.5" stroke-miterlimit="10"/>
<path d="M225.22 178.547V185.86C223.202 185.86 221.566 184.222 221.566 182.203C221.566 180.185 223.202 178.547 225.22 178.547Z" fill="#FF5072" stroke="#271F4D" stroke-miterlimit="10"/>
<path d="M250.711 188.706C250.649 188.035 250.508 187.366 250.315 186.721C250.226 186.429 250.129 186.142 250.046 185.849C250.009 185.724 249.861 185.669 249.751 185.75C249.618 185.844 249.435 185.734 249.453 185.572C249.555 184.601 249.631 183.598 249.673 182.548C249.709 181.611 249.743 180.697 249.782 179.806C249.874 179.871 249.962 179.942 250.046 180.018C250.586 178.268 251.544 177.435 251.544 174.494C251.544 170.394 250.247 166.479 247.817 163.332C247.814 163.327 247.812 163.322 247.807 163.319C243.79 157.287 235.801 154.132 227.576 157.595C224.491 158.895 222.02 161.17 220.428 163.972C218.666 166.824 217.732 170.167 217.732 173.64C217.732 175.327 218.047 176.322 218.418 177.192C218.945 178.435 219.587 179.427 219.587 181.838C219.587 184.76 219.057 185.186 218.755 186.674C218.755 186.674 218.739 186.753 218.713 186.899C218.708 186.938 218.7 186.983 218.692 187.032C218.687 187.061 218.684 187.092 218.679 187.126C218.676 187.134 218.676 187.142 218.676 187.15C218.671 187.186 218.666 187.225 218.661 187.265C218.655 187.293 218.653 187.322 218.65 187.353C218.648 187.356 218.648 187.361 218.648 187.364C218.645 187.385 218.642 187.411 218.64 187.434C218.637 187.458 218.635 187.484 218.632 187.507C218.624 187.557 218.619 187.609 218.614 187.664C218.611 187.701 218.606 187.74 218.603 187.779C218.603 187.795 218.601 187.81 218.598 187.829C218.595 187.878 218.59 187.928 218.588 187.98C218.585 187.988 218.585 187.998 218.585 188.006C218.58 188.066 218.577 188.129 218.572 188.194C218.572 188.207 218.572 188.22 218.569 188.233C218.567 188.299 218.561 188.367 218.559 188.437V188.461C218.556 188.539 218.554 188.62 218.551 188.701C218.548 188.779 218.548 188.858 218.548 188.941V188.957C218.546 189.035 218.546 189.114 218.546 189.195C218.546 189.195 218.546 189.226 218.546 189.231C218.546 189.315 218.548 189.398 218.551 189.482C218.551 189.529 218.554 189.576 218.556 189.625C218.663 192.61 219.793 196.94 225.193 198.058C226.342 198.405 227.281 198.549 227.422 198.57C227.435 198.573 227.441 198.573 227.441 198.573L227.561 198.607V198.562L227.587 198.614C227.595 198.523 227.61 198.426 227.629 198.324C227.814 197.403 228.023 196.7 228.237 196.118C228.239 196.11 228.242 196.102 228.245 196.094C228.944 194.18 229.667 193.53 229.667 190.393C229.667 189.189 229.508 188.338 229.281 187.633C229.27 187.604 229.262 187.575 229.252 187.547C228.707 185.909 227.811 185.04 227.811 182.193C227.811 178.61 229.229 178.158 229.586 175.364C230.244 173.204 236.388 172.742 238.481 172.645C238.567 172.643 238.648 172.637 238.719 172.637C238.758 172.635 238.797 172.632 238.831 172.632C238.849 172.632 238.865 172.629 238.88 172.629C239.05 172.624 239.152 172.622 239.173 172.619C239.154 172.504 239.134 172.376 239.107 172.238C239.107 172.233 239.107 172.225 239.105 172.219C239.084 172.086 239.058 171.945 239.032 171.794C239.019 171.715 239.003 171.634 238.99 171.551C238.959 171.384 238.93 171.209 238.899 171.029C238.875 170.906 238.854 170.781 238.831 170.653C238.805 170.501 238.776 170.344 238.747 170.188C238.732 170.091 238.713 169.994 238.695 169.895C238.672 169.754 238.645 169.611 238.619 169.47C238.593 169.328 238.567 169.187 238.541 169.044C238.538 169.031 238.538 169.02 238.536 169.01C238.499 168.814 238.465 168.618 238.431 168.428C238.4 168.26 238.369 168.096 238.34 167.934C238.33 167.863 238.317 167.793 238.304 167.725C238.298 167.707 238.296 167.688 238.293 167.67C238.28 167.602 238.27 167.537 238.257 167.472C238.238 167.375 238.22 167.281 238.204 167.187C238.189 167.109 238.176 167.03 238.163 166.955C238.16 166.942 238.157 166.931 238.155 166.918C238.144 166.85 238.131 166.785 238.121 166.722C238.113 166.675 238.103 166.628 238.095 166.581C238.082 166.518 238.071 166.458 238.061 166.401C238.029 166.231 238.001 166.08 237.977 165.952C237.967 165.9 237.959 165.85 237.951 165.806C237.949 165.803 237.949 165.8 237.949 165.798C237.943 165.766 237.938 165.738 237.936 165.712C237.93 165.693 237.928 165.678 237.925 165.662C237.922 165.649 237.92 165.636 237.917 165.625C237.902 165.526 237.889 165.466 237.886 165.445L238.831 167.665L240.861 172.441C240.893 172.515 240.966 172.559 241.044 172.556C241.044 172.556 242.555 172.504 242.56 172.504C244.836 172.567 248.67 173.233 248.67 177.017V184.311C248.67 184.439 248.668 184.564 248.665 184.692C248.663 184.765 248.66 184.838 248.657 184.912C248.652 185.003 248.65 185.092 248.642 185.183C248.637 185.29 248.629 185.392 248.618 185.497C248.618 185.504 248.616 185.512 248.616 185.52C248.608 185.622 248.597 185.724 248.587 185.823C248.584 185.839 248.582 185.857 248.582 185.873C248.579 185.883 248.579 185.894 248.576 185.904C248.571 185.954 248.563 186.006 248.558 186.055C248.558 186.063 248.556 186.074 248.556 186.082C248.55 186.118 248.545 186.152 248.54 186.191C248.537 186.207 248.537 186.22 248.535 186.233C248.532 186.249 248.53 186.267 248.527 186.283V186.29C248.527 186.296 248.524 186.301 248.524 186.311C248.524 186.314 248.524 186.317 248.522 186.324C248.522 186.34 248.519 186.358 248.514 186.374C248.493 186.51 248.472 186.643 248.446 186.776C248.422 186.909 248.396 187.04 248.368 187.176C248.339 187.306 248.31 187.437 248.276 187.565C248.263 187.62 248.25 187.675 248.235 187.729C248.216 187.805 248.195 187.878 248.175 187.954C248.146 188.061 248.115 188.168 248.081 188.273C248.075 188.296 248.068 188.317 248.062 188.338C248.026 188.45 247.989 188.565 247.953 188.677C247.914 188.79 247.874 188.899 247.833 189.012C247.809 189.077 247.783 189.145 247.757 189.21C247.726 189.294 247.692 189.377 247.658 189.461C247.624 189.547 247.587 189.633 247.548 189.719C247.512 189.806 247.475 189.889 247.433 189.975C247.431 189.986 247.425 189.996 247.42 190.007C247.415 190.02 247.407 190.033 247.402 190.046C247.397 190.056 247.392 190.067 247.386 190.077C247.342 190.171 247.298 190.265 247.251 190.357C247.243 190.378 247.232 190.396 247.222 190.417C247.164 190.532 247.107 190.644 247.044 190.756C247.039 190.767 247.034 190.777 247.029 190.788C246.984 190.869 246.94 190.947 246.896 191.025C246.859 191.093 246.82 191.158 246.781 191.224C246.697 191.365 246.611 191.503 246.522 191.642C246.442 191.769 246.358 191.895 246.269 192.02C246.17 192.166 246.066 192.313 245.959 192.454C245.922 192.506 245.883 192.556 245.841 192.608C245.784 192.684 245.726 192.757 245.666 192.83C245.635 192.872 245.601 192.913 245.565 192.955C245.549 192.976 245.533 192.994 245.512 193.015C245.497 193.036 245.476 193.06 245.455 193.086C245.439 193.107 245.424 193.125 245.405 193.143C245.392 193.159 245.379 193.174 245.366 193.19C245.298 193.269 245.23 193.347 245.16 193.423C245.074 193.519 244.985 193.616 244.894 193.71C244.81 193.799 244.724 193.885 244.638 193.971C244.62 193.987 244.604 194.005 244.586 194.021C244.507 194.099 244.429 194.175 244.348 194.25C244.343 194.253 244.338 194.258 244.333 194.264C244.241 194.35 244.147 194.436 244.051 194.517C243.939 194.616 243.826 194.713 243.709 194.807C243.657 194.848 243.604 194.893 243.55 194.935C243.471 195 243.393 195.06 243.31 195.123C243.299 195.131 243.286 195.141 243.276 195.149C243.265 195.157 243.255 195.164 243.244 195.172C243.226 195.185 243.208 195.201 243.189 195.214V195.251C241.798 196.28 240.204 197.047 238.473 197.481C238.403 197.57 238.358 197.63 238.288 197.719V198.674H238.452C240.128 198.674 241.819 198.614 243.435 198.204C243.44 198.204 243.445 198.202 243.453 198.199C244.421 197.925 245.254 197.583 245.969 197.209C246.042 197.168 246.113 197.131 246.183 197.089C246.739 196.763 247.266 196.384 247.744 195.948C248.683 195.091 249.453 194.044 249.981 192.885C250.359 192.049 250.612 191.158 250.706 190.242C250.745 189.855 250.758 189.463 250.738 189.074C250.732 188.952 250.725 188.829 250.711 188.706ZM225.22 185.661C225.22 185.771 225.131 185.86 225.021 185.854C223.095 185.752 221.566 184.157 221.566 182.203C221.566 180.25 223.095 178.654 225.021 178.552C225.131 178.547 225.22 178.636 225.22 178.746V185.661Z" fill="#271F4D"/>
<path d="M248.67 177.017V184.311C248.67 184.439 248.668 184.564 248.665 184.692C248.663 184.765 248.66 184.838 248.657 184.912C248.652 185.003 248.65 185.092 248.642 185.181V185.183C248.637 185.29 248.629 185.392 248.618 185.497C248.618 185.504 248.616 185.512 248.616 185.52C248.608 185.622 248.597 185.724 248.587 185.823C248.584 185.839 248.582 185.857 248.582 185.873C248.579 185.883 248.579 185.894 248.576 185.904C248.571 185.954 248.563 186.006 248.558 186.055C248.558 186.063 248.556 186.074 248.556 186.082C248.55 186.118 248.545 186.152 248.54 186.189V186.191C248.537 186.207 248.537 186.22 248.535 186.233C248.532 186.249 248.53 186.267 248.527 186.283V186.29C248.527 186.296 248.524 186.301 248.524 186.306C248.524 186.309 248.524 186.309 248.524 186.311H248.522V186.319C248.524 186.322 248.522 186.322 248.522 186.324C248.522 186.34 248.519 186.358 248.514 186.374C248.493 186.51 248.472 186.643 248.446 186.776C248.422 186.909 248.396 187.04 248.368 187.171V187.176C248.339 187.306 248.31 187.437 248.276 187.565C248.263 187.62 248.25 187.675 248.235 187.729C248.216 187.805 248.195 187.878 248.175 187.954C248.146 188.061 248.115 188.168 248.081 188.273C248.075 188.296 248.068 188.317 248.062 188.338C248.026 188.45 247.989 188.565 247.953 188.677C247.914 188.79 247.874 188.899 247.833 189.012C247.809 189.077 247.783 189.145 247.757 189.21C247.726 189.294 247.692 189.377 247.658 189.461C247.624 189.547 247.587 189.633 247.548 189.719C247.512 189.806 247.475 189.889 247.433 189.975C247.431 189.986 247.425 189.996 247.42 190.007C247.415 190.02 247.407 190.033 247.402 190.046C247.397 190.056 247.392 190.067 247.386 190.077C247.342 190.171 247.298 190.265 247.251 190.357C247.243 190.378 247.232 190.396 247.222 190.417C247.164 190.532 247.107 190.644 247.044 190.756C247.039 190.767 247.034 190.777 247.029 190.788C246.984 190.868 246.94 190.947 246.896 191.025C246.859 191.093 246.82 191.158 246.781 191.224C246.697 191.365 246.611 191.503 246.522 191.642C246.442 191.769 246.358 191.895 246.269 192.02C246.17 192.166 246.066 192.313 245.959 192.454C245.922 192.506 245.883 192.556 245.841 192.608C245.784 192.684 245.726 192.757 245.666 192.83C245.635 192.872 245.601 192.913 245.565 192.955C245.549 192.976 245.533 192.994 245.512 193.015C245.497 193.036 245.476 193.06 245.458 193.08C245.458 193.083 245.458 193.083 245.455 193.086C245.439 193.107 245.424 193.125 245.405 193.143C245.392 193.159 245.379 193.174 245.366 193.19C245.298 193.269 245.23 193.347 245.16 193.423C245.074 193.519 244.985 193.616 244.894 193.71C244.81 193.799 244.724 193.885 244.638 193.971C244.62 193.987 244.604 194.005 244.586 194.021C244.507 194.099 244.429 194.175 244.348 194.25C244.343 194.253 244.338 194.258 244.333 194.264C244.239 194.35 244.145 194.433 244.051 194.517C243.939 194.616 243.826 194.713 243.709 194.807C243.657 194.848 243.604 194.893 243.55 194.935C243.471 195 243.393 195.06 243.31 195.123C243.299 195.131 243.286 195.141 243.276 195.149C243.265 195.157 243.255 195.164 243.244 195.172C243.226 195.185 243.208 195.201 243.189 195.214C243.174 195.227 243.156 195.238 243.14 195.251C243.124 195.264 243.106 195.277 243.085 195.29C242.949 195.389 242.811 195.486 242.673 195.58C242.61 195.624 242.547 195.666 242.485 195.705C242.406 195.757 242.328 195.807 242.25 195.857C242.159 195.914 242.067 195.969 241.973 196.024C241.55 196.274 241.112 196.499 240.66 196.7C239.963 197.013 239.238 197.272 238.484 197.468C238.418 197.486 238.353 197.502 238.288 197.517C237.28 197.76 236.226 197.891 235.14 197.896H235.091C235.004 197.896 234.921 197.896 234.835 197.894C234.686 197.891 234.537 197.886 234.389 197.878C232.165 197.771 230.074 197.144 228.237 196.118C228.239 196.11 228.242 196.102 228.245 196.094C228.944 194.18 229.667 193.53 229.667 190.393C229.667 189.189 229.508 188.338 229.281 187.633C229.27 187.604 229.262 187.575 229.252 187.547C228.707 185.909 227.811 185.04 227.811 182.193C227.811 178.61 229.229 178.158 229.584 175.369C229.586 175.366 229.586 175.366 229.586 175.364C230.244 173.204 236.388 172.742 238.481 172.645C238.567 172.643 238.648 172.637 238.719 172.637C238.758 172.635 238.797 172.632 238.831 172.632C238.849 172.632 238.865 172.629 238.88 172.629C239.05 172.624 239.152 172.622 239.173 172.622V172.619C239.154 172.504 239.134 172.376 239.107 172.238C239.107 172.233 239.107 172.225 239.105 172.219C239.084 172.086 239.058 171.945 239.032 171.794C239.019 171.715 239.003 171.634 238.99 171.551C238.961 171.384 238.93 171.209 238.899 171.029C238.875 170.906 238.854 170.781 238.831 170.653C238.805 170.501 238.776 170.344 238.747 170.188C238.732 170.091 238.713 169.994 238.695 169.895C238.672 169.754 238.645 169.611 238.619 169.47C238.593 169.328 238.567 169.187 238.541 169.044C238.538 169.031 238.538 169.02 238.536 169.01C238.499 168.814 238.465 168.618 238.431 168.428C238.4 168.26 238.369 168.096 238.34 167.934C238.33 167.863 238.317 167.793 238.304 167.725C238.298 167.707 238.296 167.688 238.293 167.67C238.28 167.602 238.27 167.537 238.257 167.472C238.238 167.375 238.22 167.281 238.204 167.187C238.189 167.109 238.176 167.03 238.163 166.955C238.16 166.942 238.157 166.931 238.155 166.918C238.144 166.85 238.131 166.785 238.121 166.722C238.113 166.675 238.103 166.628 238.095 166.581C238.082 166.518 238.071 166.458 238.061 166.401C238.029 166.231 238.001 166.08 237.977 165.952C237.967 165.9 237.959 165.85 237.951 165.806C237.949 165.803 237.949 165.8 237.949 165.798C237.943 165.766 237.938 165.738 237.936 165.712C237.93 165.693 237.928 165.678 237.925 165.662C237.922 165.649 237.92 165.636 237.917 165.625C237.902 165.526 237.889 165.466 237.886 165.445L238.831 167.665L240.914 172.562L242.555 172.504H242.56C244.836 172.567 248.67 173.233 248.67 177.017Z" fill="#FBBC9F" stroke="#271F4D" stroke-width="0.5" stroke-miterlimit="10"/>
<path d="M234.112 181.443C234.833 181.443 235.417 180.859 235.417 180.138C235.417 179.417 234.833 178.832 234.112 178.832C233.392 178.832 232.807 179.417 232.807 180.138C232.807 180.859 233.392 181.443 234.112 181.443Z" fill="#271F4D"/>
<path d="M244.461 181.728C245.338 181.728 246.05 181.016 246.05 180.138C246.05 179.259 245.338 178.547 244.461 178.547C243.583 178.547 242.871 179.259 242.871 180.138C242.871 181.016 243.583 181.728 244.461 181.728Z" fill="#271F4D"/>
<path d="M238.288 190.062C236.839 190.062 235.472 189.759 234.328 189.184C234.135 189.087 234.057 188.852 234.154 188.659C234.25 188.466 234.485 188.388 234.678 188.484C235.712 189.004 236.962 189.278 238.288 189.278C239.614 189.278 240.864 189.004 241.897 188.484C242.091 188.388 242.326 188.466 242.422 188.659C242.519 188.852 242.44 189.087 242.247 189.184C241.104 189.759 239.736 190.062 238.288 190.062Z" fill="#271F4D"/>
<path d="M240.313 184.875H238.486C238.27 184.875 238.095 184.7 238.095 184.483C238.095 184.267 238.27 184.092 238.486 184.092H240.313C240.53 184.092 240.705 184.267 240.705 184.483C240.705 184.7 240.53 184.875 240.313 184.875Z" fill="#271F4D"/>
<path d="M218.658 187.267C218.655 187.293 218.653 187.322 218.65 187.353C218.648 187.356 218.648 187.361 218.648 187.364C218.65 187.33 218.653 187.299 218.658 187.267Z" fill="#271F4D"/>
<path d="M218.658 187.267C218.661 187.254 218.661 187.241 218.663 187.231C218.663 187.241 218.661 187.252 218.661 187.265C218.661 187.265 218.661 187.265 218.658 187.267Z" fill="#271F4D"/>
<path d="M225.22 178.547V185.86C223.202 185.86 221.566 184.222 221.566 182.203C221.566 180.185 223.202 178.547 225.22 178.547Z" fill="#271F4D"/>
<path d="M238.288 198.069V198.878L238.249 198.614L238.288 198.069Z" fill="#271F4D"/>
<path d="M225.22 178.547V185.86C223.202 185.86 221.566 184.222 221.566 182.203C221.566 180.185 223.202 178.547 225.22 178.547Z" fill="#FBBC9F" stroke="#271F4D" stroke-miterlimit="10" stroke-linecap="round" stroke-linejoin="round"/>
<path d="M227.561 198.607L227.422 198.57C227.435 198.573 227.441 198.573 227.441 198.573L227.561 198.607Z" fill="#271F4D"/>
<path d="M227.587 198.614L227.561 198.607V198.562L227.587 198.614Z" fill="#271F4D"/>
<path d="M240.914 172.562L239.175 172.622C239.175 172.622 239.175 172.622 239.173 172.622V172.619C239.154 172.504 239.134 172.376 239.107 172.238C239.107 172.233 239.107 172.225 239.105 172.219C239.084 172.086 239.058 171.945 239.032 171.794C239.019 171.715 239.003 171.634 238.99 171.551C238.961 171.384 238.93 171.209 238.899 171.029C238.875 170.906 238.854 170.781 238.831 170.653C238.805 170.501 238.776 170.344 238.747 170.188C238.732 170.091 238.713 169.994 238.695 169.895C238.672 169.754 238.645 169.611 238.619 169.47C238.593 169.328 238.567 169.187 238.541 169.044C238.538 169.031 238.538 169.02 238.536 169.01C238.499 168.814 238.465 168.618 238.431 168.428C238.4 168.26 238.369 168.096 238.34 167.934C238.33 167.863 238.317 167.793 238.304 167.725C238.298 167.707 238.296 167.688 238.293 167.67C238.28 167.602 238.27 167.537 238.257 167.472C238.238 167.375 238.22 167.281 238.204 167.187C238.189 167.109 238.176 167.03 238.163 166.955C238.16 166.942 238.157 166.931 238.155 166.918C238.144 166.85 238.131 166.785 238.121 166.722C238.113 166.675 238.103 166.628 238.095 166.581C238.082 166.518 238.071 166.458 238.061 166.401C238.029 166.231 238.001 166.08 237.977 165.952C237.967 165.9 237.959 165.85 237.951 165.806C237.949 165.803 237.949 165.8 237.949 165.798C237.943 165.766 237.938 165.738 237.936 165.712C237.93 165.693 237.928 165.678 237.925 165.662C237.922 165.649 237.92 165.636 237.917 165.625C237.902 165.526 237.889 165.466 237.886 165.445L238.831 167.665L240.914 172.562Z" fill="#271F4D"/>
<path d="M239.267 173.264C239.274 173.243 239.238 173.006 239.173 172.622V172.619C239.154 172.504 239.134 172.376 239.107 172.238C239.107 172.233 239.107 172.225 239.105 172.219C239.084 172.086 239.058 171.945 239.032 171.794C239.019 171.715 239.003 171.634 238.99 171.551C238.961 171.384 238.93 171.209 238.899 171.029C238.875 170.906 238.854 170.781 238.831 170.653C238.805 170.501 238.776 170.344 238.747 170.188C238.732 170.091 238.713 169.994 238.695 169.895C238.672 169.754 238.645 169.611 238.619 169.47C238.593 169.328 238.567 169.187 238.541 169.044C238.538 169.031 238.538 169.02 238.536 169.01C238.499 168.814 238.465 168.618 238.431 168.428C238.4 168.26 238.369 168.096 238.34 167.934C238.33 167.863 238.317 167.793 238.304 167.725C238.298 167.707 238.296 167.688 238.293 167.67C238.28 167.602 238.27 167.537 238.257 167.472C238.238 167.375 238.22 167.281 238.204 167.187C238.189 167.109 238.176 167.03 238.163 166.955C238.16 166.942 238.157 166.931 238.155 166.918C238.144 166.85 238.131 166.785 238.121 166.722C238.113 166.675 238.103 166.628 238.095 166.581C238.082 166.518 238.071 166.458 238.061 166.401C238.029 166.231 238.001 166.08 237.977 165.952C237.967 165.9 237.959 165.85 237.951 165.806C237.949 165.803 237.949 165.8 237.949 165.798C237.943 165.766 237.938 165.738 237.936 165.712C237.93 165.693 237.928 165.678 237.925 165.662C237.922 165.649 237.92 165.636 237.917 165.625C237.902 165.526 237.889 165.466 237.886 165.445L238.831 167.665L240.914 172.562L241.214 173.264H239.267Z" fill="#FBBC9F"/>
<path d="M218.718 232.084V224.693" stroke="#271F4D" stroke-width="0.5" stroke-miterlimit="10" stroke-linecap="round" stroke-linejoin="round"/>
<path d="M248.67 232.084V224.693" stroke="#271F4D" stroke-width="0.5" stroke-miterlimit="10" stroke-linecap="round" stroke-linejoin="round"/>
<path d="M238.452 198.674C240.128 198.674 241.819 198.614 243.435 198.204C242.714 198.408 241.918 198.573 241.039 198.69C240.201 198.802 239.285 198.868 238.288 198.878L238.452 198.674Z" fill="#271F4D"/>
<path d="M262.477 202.906H275.605L275.5 203.797H262.477V202.906Z" fill="#FBBC9F"/>
<path d="M246.439 218.271L233.318 234.845L223.956 246.669C222.464 248.551 220.575 249.935 218.503 250.793C218.251 250.901 217.993 250.998 217.736 251.087L210.693 234.64H218.369V229.895C219.517 229.605 220.581 228.95 221.371 227.95L232.147 214.339L235.756 209.781L246.439 218.271Z" fill="#FBBC9F"/>
<path d="M246.439 218.271L246.635 218.426L246.79 218.23L246.595 218.075L246.439 218.271ZM233.318 234.845L233.514 235L233.514 235L233.318 234.845ZM223.956 246.669L224.152 246.824L224.152 246.824L223.956 246.669ZM218.503 250.793L218.407 250.562L218.404 250.563L218.503 250.793ZM217.736 251.087L217.506 251.186L217.598 251.4L217.818 251.324L217.736 251.087ZM210.693 234.64V234.39H210.314L210.463 234.738L210.693 234.64ZM218.369 234.64V234.89H218.619V234.64H218.369ZM218.369 229.895L218.308 229.652L218.119 229.7V229.895H218.369ZM221.371 227.95L221.175 227.795L221.175 227.795L221.371 227.95ZM232.147 214.339L231.951 214.184L231.951 214.184L232.147 214.339ZM235.756 209.781L235.911 209.586L235.715 209.43L235.56 209.626L235.756 209.781ZM246.243 218.116L233.122 234.69L233.514 235L246.635 218.426L246.243 218.116ZM233.122 234.69L223.76 246.514L224.152 246.824L233.514 235L233.122 234.69ZM223.76 246.514C222.295 248.361 220.441 249.72 218.407 250.562L218.598 251.024C220.709 250.15 222.633 248.74 224.152 246.824L223.76 246.514ZM218.404 250.563C218.159 250.668 217.907 250.763 217.654 250.851L217.818 251.324C218.079 251.233 218.342 251.133 218.601 251.023L218.404 250.563ZM217.966 250.989L210.923 234.541L210.463 234.738L217.506 251.186L217.966 250.989ZM210.693 234.89H218.369V234.39H210.693V234.89ZM218.619 234.64V229.895H218.119V234.64H218.619ZM218.43 230.137C219.629 229.835 220.741 229.15 221.567 228.105L221.175 227.795C220.42 228.75 219.404 229.376 218.308 229.652L218.43 230.137ZM221.567 228.105L232.343 214.494L231.951 214.184L221.175 227.795L221.567 228.105ZM232.343 214.494L235.952 209.937L235.56 209.626L231.951 214.184L232.343 214.494ZM235.6 209.977L246.284 218.467L246.595 218.075L235.911 209.586L235.6 209.977Z" fill="#271F4D"/>
<path d="M232.945 213.39L239.458 204.17L239.518 199.144C239.841 197.811 240.636 196.657 241.727 195.939L243.506 194.888L248.01 196.069C250.334 196.68 253.62 196.938 253.741 199.55L254.033 203.068L254.32 206.366C254.368 207.405 254.32 209.321 253.741 210.349C251.865 213.673 251.159 216.247 247.639 216.751L240.693 225.474" fill="#FBBC9F"/>
<path d="M232.945 213.39L239.458 204.17L239.518 199.144C239.841 197.811 240.636 196.657 241.727 195.939L243.506 194.888L248.01 196.069C250.334 196.68 253.62 196.938 253.741 199.55L254.033 203.068L254.32 206.366C254.368 207.405 254.32 209.321 253.741 210.349C251.865 213.673 251.159 216.247 247.639 216.751L240.693 225.474" stroke="#271F4D" stroke-width="0.5" stroke-miterlimit="10" stroke-linecap="round" stroke-linejoin="round"/>
<path d="M246.508 200.171C244.824 200.131 243.492 198.731 243.534 197.044L243.544 196.586C243.586 194.849 245.023 193.478 246.757 193.518C248.391 193.557 249.683 194.915 249.644 196.552L249.628 197.192C249.586 198.876 248.189 200.21 246.508 200.171Z" fill="#8FABCF" stroke="#271F4D" stroke-width="0.5" stroke-miterlimit="10"/>
<path d="M248.168 191.581L248.073 195.539C248.057 196.226 247.487 196.771 246.802 196.755L246.712 196.752C246.027 196.736 245.483 196.165 245.499 195.478L245.591 191.657C245.969 191.765 246.36 191.82 246.76 191.82C247.246 191.82 247.716 191.736 248.168 191.581Z" fill="#C1D4F5"/>
<path d="M248.168 191.581L248.418 191.587L248.426 191.228L248.086 191.345L248.168 191.581ZM248.073 195.539L247.823 195.533L247.823 195.533L248.073 195.539ZM246.802 196.755L246.794 197.005L246.796 197.005L246.802 196.755ZM246.712 196.752L246.72 196.502L246.718 196.502L246.712 196.752ZM245.499 195.478L245.249 195.472L245.249 195.473L245.499 195.478ZM245.591 191.657L245.659 191.417L245.349 191.328L245.341 191.651L245.591 191.657ZM246.76 191.82V192.07V191.82ZM247.918 191.575L247.823 195.533L248.323 195.545L248.418 191.587L247.918 191.575ZM247.823 195.533C247.811 196.082 247.355 196.517 246.807 196.505L246.796 197.005C247.62 197.024 248.304 196.369 248.323 195.545L247.823 195.533ZM246.809 196.505L246.72 196.502L246.705 197.002L246.794 197.005L246.809 196.505ZM246.718 196.502C246.171 196.49 245.736 196.034 245.749 195.484L245.249 195.473C245.23 196.297 245.882 196.983 246.707 197.002L246.718 196.502ZM245.749 195.484L245.841 191.663L245.341 191.651L245.249 195.472L245.749 195.484ZM245.522 191.898C245.923 192.012 246.337 192.07 246.76 192.07V191.57C246.384 191.57 246.015 191.518 245.659 191.417L245.522 191.898ZM246.76 192.07C247.275 192.07 247.773 191.981 248.249 191.817L248.086 191.345C247.659 191.491 247.216 191.57 246.76 191.57V192.07Z" fill="#271F4D"/>
<path opacity="0.36" d="M253.076 183.368C253.076 187.344 251.148 190.681 248.553 191.581C248.101 191.736 247.631 191.82 247.145 191.82C246.746 191.82 246.354 191.765 245.976 191.657C243.26 190.884 241.214 187.465 241.214 183.368C241.214 178.697 243.869 174.912 247.145 174.912C250.421 174.912 253.076 178.697 253.076 183.368Z" fill="#FF5072" stroke="#271F4D" stroke-width="0.5" stroke-miterlimit="10"/>
<path d="M247.145 191.823C250.421 191.823 253.076 188.037 253.076 183.368C253.076 178.698 250.421 174.912 247.145 174.912C243.869 174.912 241.214 178.698 241.214 183.368C241.214 188.037 243.869 191.823 247.145 191.823Z" stroke="#271F4D" stroke-miterlimit="10"/>
<path d="M218.505 252.88C210.972 252.88 204.862 246.761 204.862 239.213V229.898H208.66" fill="#FF5072"/>
<path d="M208.66 229.895H218.505V252.88" fill="#FF5072"/>
<path d="M208.66 229.895H218.505V252.88" stroke="#271F4D" stroke-width="0.5" stroke-miterlimit="10" stroke-linecap="round"/>
<rect x="0.842102" y="1.375" width="483" height="385" rx="1.5" stroke="#D5D5ED"/>
<defs>
<linearGradient id="paint0_linear_801_7876" x1="242.342" y1="77.875" x2="242.342" y2="309.875" gradientUnits="userSpaceOnUse">
<stop stop-color="#F0F0F0"/>
<stop offset="1" stop-color="#FBFBFC" stop-opacity="0"/>
</linearGradient>
<linearGradient id="paint1_linear_801_7876" x1="292.332" y1="171.875" x2="291.407" y2="225.75" gradientUnits="userSpaceOnUse">
<stop stop-color="#8FABCF"/>
<stop offset="1" stop-color="#C1D4F5" stop-opacity="0"/>
</linearGradient>
<linearGradient id="paint2_linear_801_7876" x1="312.16" y1="190.097" x2="312.16" y2="216.607" gradientUnits="userSpaceOnUse">
<stop stop-color="#C1D4F5"/>
<stop offset="1" stop-color="#C1D4F5" stop-opacity="0"/>
</linearGradient>
<linearGradient id="paint3_linear_801_7876" x1="312.16" y1="190.097" x2="312.16" y2="216.607" gradientUnits="userSpaceOnUse">
<stop stop-color="#8FABCF"/>
<stop offset="1" stop-color="#8FABCF" stop-opacity="0"/>
</linearGradient>
<linearGradient id="paint4_linear_801_7876" x1="303.102" y1="190.097" x2="303.102" y2="216.607" gradientUnits="userSpaceOnUse">
<stop stop-color="#8FABCF"/>
<stop offset="1" stop-color="#8FABCF" stop-opacity="0"/>
</linearGradient>
<linearGradient id="paint5_linear_801_7876" x1="314.396" y1="190.097" x2="314.396" y2="216.607" gradientUnits="userSpaceOnUse">
<stop stop-color="#8FABCF"/>
<stop offset="1" stop-color="#8FABCF" stop-opacity="0"/>
</linearGradient>
<linearGradient id="paint6_linear_801_7876" x1="297.707" y1="216.352" x2="297.707" y2="234.521" gradientUnits="userSpaceOnUse">
<stop stop-color="#C1D4F5"/>
<stop offset="1" stop-color="#C1D4F5" stop-opacity="0"/>
</linearGradient>
<linearGradient id="paint7_linear_801_7876" x1="297.707" y1="216.352" x2="297.707" y2="234.521" gradientUnits="userSpaceOnUse">
<stop stop-color="#8FABCF"/>
<stop offset="1" stop-color="#8FABCF" stop-opacity="0"/>
</linearGradient>
<linearGradient id="paint8_linear_801_7876" x1="291.656" y1="216.352" x2="291.656" y2="234.521" gradientUnits="userSpaceOnUse">
<stop stop-color="#8FABCF"/>
<stop offset="1" stop-color="#8FABCF" stop-opacity="0"/>
</linearGradient>
<linearGradient id="paint9_linear_801_7876" x1="299.396" y1="216.352" x2="299.396" y2="234.521" gradientUnits="userSpaceOnUse">
<stop stop-color="#8FABCF"/>
<stop offset="1" stop-color="#8FABCF" stop-opacity="0"/>
</linearGradient>
</defs>
</svg>
