<svg width="24" height="33" viewBox="0 0 24 33" fill="none" xmlns="http://www.w3.org/2000/svg">
<g clip-path="url(#clip0_783_9806)">
<path d="M15.9048 0.347656V6.02612C15.9048 7.49764 17.1038 8.69136 18.5819 8.69136H23.9048L15.9048 0.347656Z" fill="#8FABCF"/>
<path d="M21.0029 32.2529H3.04476C1.39238 32.2529 0.047619 30.9141 0.047619 29.2691V23.3944L0 20.6523C0 20.6476 0 20.6429 0 20.6381V3.69281C0 1.79557 1.54952 0.25293 3.45524 0.25293H14.1905C14.6371 0.25293 15 0.614174 15 1.05886C15 1.50354 14.6371 1.86478 14.1905 1.86478H3.45524C2.44286 1.86478 1.61905 2.68493 1.61905 3.69281V20.6315L1.66667 23.3745C1.66667 23.3792 1.66667 23.384 1.66667 23.3887V29.2701C1.66667 30.0267 2.28476 30.642 3.04476 30.642H21.0029C21.7629 30.642 22.381 30.0267 22.381 29.2701V10.1611C22.381 9.7164 22.7438 9.35515 23.1905 9.35515C23.6371 9.35515 24 9.7164 24 10.1611V29.2691C24 30.9141 22.6552 32.2529 21.0029 32.2529Z" fill="#8FABCF"/>
<path d="M4.11143 22.686L5.04286 21.9588C5.37905 22.431 5.88571 22.7401 6.42095 22.7401C6.94762 22.7401 7.31238 22.4699 7.31238 22.0271C7.31238 21.7019 7.02857 21.534 6.59047 21.2657L6.00571 20.9064C5.44667 20.5574 5.08095 20.1147 5.08095 19.3675C5.08095 18.3103 6.04095 17.4561 7.25714 17.4561C7.98476 17.4561 8.66 17.8182 9.13048 18.389L8.31143 19.1504C7.99619 18.8204 7.64857 18.5739 7.19905 18.5739C6.68857 18.5739 6.41238 18.8849 6.41238 19.2357C6.41238 19.5524 6.7019 19.706 7.18476 20.0056L7.79809 20.3773C8.39428 20.7329 8.66 21.1292 8.66 21.8403C8.66 22.96 7.74 23.8409 6.31905 23.8409C5.51428 23.8428 4.71714 23.5109 4.11143 22.686Z" fill="#8FABCF"/>
<path d="M9.62762 21.2383C9.62762 19.0613 11.0971 17.458 12.7733 17.458C14.1867 17.458 15.0981 18.4261 15.0981 20.0626C15.0981 22.2395 13.6286 23.8428 11.9524 23.8428C10.539 23.8428 9.62762 22.8738 9.62762 21.2383ZM13.7657 20.146C13.7657 19.1685 13.3943 18.5749 12.7076 18.5749C11.8286 18.5749 10.9609 19.726 10.9609 21.1529C10.9609 22.1305 11.3324 22.724 12.019 22.724C12.8981 22.725 13.7657 21.5739 13.7657 20.146ZM11.0076 23.4702L12.3248 23.4797C12.4733 24.0837 13.1029 24.352 13.7505 24.352C13.9962 24.352 14.1762 24.3179 14.3743 24.2638L14.4276 25.2442C14.2095 25.3286 13.8895 25.394 13.6686 25.394C12.3171 25.3959 11.4095 24.7711 11.0076 23.4702Z" fill="#8FABCF"/>
<path d="M16.8571 17.5708H18.1581L17.1343 22.6424H19.481L19.2676 23.729H15.619L16.8571 17.5708Z" fill="#8FABCF"/>
</g>
<defs>
<clipPath id="clip0_783_9806">
<rect width="24" height="32" fill="white" transform="translate(0 0.25293)"/>
</clipPath>
</defs>
</svg>
