<svg width="24" height="31" viewBox="0 0 24 31" fill="none" xmlns="http://www.w3.org/2000/svg">
<path d="M7.57401 9.33184H1.40718C1.01896 9.33184 0.703583 9.01705 0.703583 8.62954C0.703583 8.24204 1.01896 7.92725 1.40718 7.92725H7.57401C7.96223 7.92725 8.27761 8.24204 8.27761 8.62954C8.27761 9.01705 7.96306 9.33184 7.57401 9.33184Z" fill="#8FABCF"/>
<path d="M20.156 24.1914H0.703583V25.596H20.156V24.1914Z" fill="#8FABCF"/>
<path d="M20.156 19.6497H0.703583V21.0542H20.156V19.6497Z" fill="#8FABCF"/>
<path d="M9.99687 30.2575C9.60865 30.2575 9.29327 29.9763 9.29327 29.6301V18.7039C9.29327 18.3577 9.60865 18.0764 9.99687 18.0764C10.3851 18.0764 10.7005 18.3577 10.7005 18.7039V29.6301C10.7005 29.9763 10.3851 30.2575 9.99687 30.2575Z" fill="#8FABCF"/>
<path d="M18.2546 30.566H2.64636C1.21019 30.566 0.0413881 29.3994 0.0413881 27.9659V22.8465L0 20.4571C0 20.4529 0 20.4488 0 20.4447V5.67824C0 4.02577 1.34677 2.68066 3.00312 2.68066H12.3337C12.7219 2.68066 13.0373 2.99546 13.0373 3.38296C13.0373 3.77047 12.7219 4.08526 12.3337 4.08526H3.00312C2.12321 4.08526 1.4072 4.79995 1.4072 5.67824V20.4389L1.44858 22.8292C1.44858 22.8333 1.44858 22.8374 1.44858 22.8416V27.9667C1.44858 28.626 1.9858 29.1623 2.64636 29.1623H18.2546C18.9152 29.1623 19.4524 28.626 19.4524 27.9667V11.8105C19.4524 11.423 19.7678 11.1082 20.156 11.1082C20.5442 11.1082 20.8596 11.423 20.8596 11.8105V27.9659C20.8596 29.4002 19.6908 30.566 18.2546 30.566Z" fill="#8FABCF"/>
<path d="M22.0453 2.74068C21.5909 2.3193 21.1662 1.86653 20.7259 1.4311C19.5463 0.265286 17.9653 0.27107 16.7874 1.44432C16.5424 1.68889 16.2973 1.93345 16.0523 2.17719L16.0515 2.17636C15.3015 2.92493 14.5516 3.6735 13.8016 4.42207C13.6046 4.61871 13.4076 4.81535 13.2106 5.012C13.1229 5.09958 13.0351 5.18716 12.9474 5.27474C11.1304 7.08832 9.31433 8.90273 7.50153 10.7204C7.3484 10.8733 7.20602 11.0799 7.15636 11.2856C6.68288 13.2281 6.23009 15.1755 5.77316 17.1221C5.67052 17.56 5.7086 17.7599 5.99418 17.9665C6.11669 18.0549 6.26486 18.1028 6.41551 18.1028H6.43537C6.52891 18.1028 6.62079 18.0813 6.70854 18.0491C6.72261 18.0442 6.73668 18.0392 6.75075 18.0359C8.63971 17.5897 10.5303 17.1535 12.4143 16.6891C12.6916 16.6206 12.9441 16.4785 13.146 16.2777C14.9539 14.4815 16.7592 12.6819 18.5638 10.8816L18.5654 10.8832C19.7201 9.73226 20.8749 8.58132 22.0312 7.43286C22.5933 6.87432 23.104 6.30422 23.2754 5.50856C23.2812 5.25656 23.2861 5.01282 23.2919 4.76082C23.1537 3.91311 22.6488 3.30087 22.0453 2.74068ZM12.3721 15.1887C12.2488 15.311 12.0733 15.4134 11.9052 15.4539C10.3813 15.8249 8.85327 16.1794 7.28631 16.5487C7.30618 16.4272 7.31694 16.3306 7.33929 16.2364C7.68364 14.7822 8.02716 13.3272 8.37731 11.8747C8.40462 11.7607 8.45512 11.6334 8.53541 11.5525C10.3714 9.71409 12.2098 7.87737 14.0483 6.04148C15.3015 7.29157 16.5366 8.52348 17.7914 9.7744C17.7476 9.8215 17.6913 9.88512 17.63 9.94791L17.6309 9.94874C15.8785 11.697 14.1269 13.4445 12.3721 15.1887ZM21.6405 5.92003C20.701 6.89168 19.7201 7.82367 18.7732 8.75566C17.5448 7.52953 16.3048 6.291 15.0598 5.04752C15.9919 4.11388 16.9273 3.15049 17.8941 2.21933C18.3949 1.73681 19.1606 1.76325 19.6663 2.24907C20.3219 2.87866 20.9659 3.5223 21.5975 4.17585C22.0751 4.67241 22.1157 5.42924 21.6405 5.92003Z" fill="#8FABCF"/>
</svg>
