<svg width="271" height="300" viewBox="0 0 271 300" fill="none" xmlns="http://www.w3.org/2000/svg">
<path d="M257.743 86.0612C255.377 79.18 252.444 72.5626 248.988 66.2706C243.14 55.608 235.815 45.8776 227.285 37.3476C204.21 14.2725 172.332 0 137.121 0C88.8959 0 46.9227 26.7729 25.2546 66.2706C21.7987 72.5626 18.8659 79.18 16.5047 86.0612C12.0331 99.0541 9.61035 113.001 9.61035 127.511V284.143C9.61035 292.827 16.6542 299.871 25.3382 299.871H248.905C257.589 299.871 264.633 292.827 264.633 284.143V127.511C264.633 113.001 262.21 99.0541 257.743 86.0612Z" fill="#FAFBFD"/>
<path d="M64.0077 249.027L246.224 249.027" stroke="url(#paint0_linear_1771_9374)" stroke-miterlimit="10"/>
<path d="M150.563 101.16C150.545 101.152 150.523 101.151 150.497 101.151C150.545 101.138 150.567 101.143 150.563 101.16Z" fill="#271F4D"/>
<path d="M67.3915 25.1913C64.1334 25.1913 60.8752 25.2133 57.6171 25.1825C55.6737 25.1649 54.1963 24.2855 53.3081 22.5443C52.8596 21.6694 52.7233 20.7196 52.9256 19.7259C53.2114 18.3145 53.9676 17.246 55.1988 16.5337C56.3464 15.8698 57.5775 15.7027 58.857 16.1028C59.3539 16.2567 59.6441 16.2128 59.8771 15.9006C59.9343 15.8258 59.9651 15.7203 59.9826 15.6236C60.0794 15.0784 60.1365 14.5243 60.2597 13.9835C60.4443 13.1833 60.7961 12.449 61.2534 11.7763C62.2691 10.2769 63.808 9.16888 65.5536 8.68082C66.4989 8.417 67.4794 8.32906 68.4907 8.47416C69.845 8.66763 71.0629 9.15129 72.1446 9.97791C73.2922 10.8573 74.1276 11.9697 74.6244 13.3328C74.7739 13.7417 75.0597 13.9 75.4906 13.8208C75.9039 13.7461 76.3173 13.6494 76.7306 13.5834C76.9724 13.5438 77.223 13.535 77.4693 13.557C78.9862 13.6801 80.3185 14.221 81.4001 15.3246C82.0772 16.0193 82.5521 16.8327 82.8335 17.7737C83.1193 18.7366 83.1589 19.7039 82.9259 20.6669C82.5917 22.0519 81.853 23.1863 80.6878 24.0305C79.6062 24.8176 78.3926 25.1869 77.0647 25.1869C73.8418 25.1913 70.6144 25.1913 67.3915 25.1913Z" fill="#E8EFFE"/>
<path d="M25.4312 97.093C19.7394 97.093 14.0475 97.1314 8.35558 97.0776C4.96042 97.0469 2.37948 95.5106 0.827844 92.4688C0.0443457 90.9402 -0.193777 89.281 0.159566 87.545C0.658854 85.0793 1.98005 83.2127 4.13083 81.9683C6.13566 80.8084 8.28644 80.5166 10.5217 81.2156C11.3897 81.4844 11.8967 81.4076 12.3038 80.8622C12.4037 80.7316 12.4574 80.5473 12.4881 80.3783C12.6571 79.4258 12.757 78.458 12.9721 77.5131C13.2947 76.1151 13.9092 74.8323 14.7081 73.6571C16.4825 71.0377 19.1709 69.102 22.2204 68.2494C23.8719 67.7885 25.5849 67.6349 27.3516 67.8884C29.7174 68.2264 31.8452 69.0713 33.7348 70.5154C35.7396 72.0517 37.1991 73.9951 38.0671 76.3763C38.3282 77.0907 38.8275 77.3672 39.5803 77.2289C40.3024 77.0984 41.0244 76.9294 41.7464 76.8141C42.1689 76.745 42.6068 76.7296 43.0369 76.7681C45.687 76.9831 48.0144 77.9279 49.9041 79.856C51.087 81.0696 51.9166 82.4907 52.4082 84.1345C52.9075 85.8167 52.9766 87.5066 52.5695 89.1888C51.9857 91.6085 50.6952 93.5903 48.6597 95.0651C46.7701 96.4401 44.65 97.0853 42.3302 97.0853C36.6998 97.1006 31.0694 97.093 25.4312 97.093Z" fill="#E8EFFE"/>
<path d="M254.801 84.5531C251.543 84.5531 248.285 84.5751 245.027 84.5443C243.083 84.5267 241.606 83.6473 240.718 81.9061C240.269 81.0312 240.133 80.0814 240.335 79.0877C240.621 77.6763 241.377 76.6078 242.608 75.8955C243.756 75.2316 244.987 75.0645 246.267 75.4646C246.763 75.6185 247.054 75.5746 247.287 75.2624C247.344 75.1876 247.375 75.0821 247.392 74.9854C247.489 74.4401 247.546 73.8861 247.669 73.3453C248.043 71.7404 249.067 70.4257 250.303 69.2606C252.062 68.1525 253.909 67.5545 255.9 67.8359C257.255 68.0294 258.473 68.5131 259.554 69.3397C260.702 70.2191 261.537 71.3315 262.034 72.6946C262.184 73.1035 262.469 73.2618 262.9 73.1826C263.437 73.0859 263.964 72.954 264.51 72.8968C266.176 72.9628 267.645 73.4904 268.81 74.6864C269.487 75.3811 269.962 76.1945 270.243 77.1355C270.529 78.0984 270.568 79.0657 270.335 80.0286C270.001 81.4137 269.263 82.5481 268.097 83.3923C267.016 84.1794 265.802 84.5487 264.474 84.5487C261.251 84.5575 258.028 84.5531 254.801 84.5531Z" fill="#E8EFFE"/>
<path d="M158.794 37.4683C154.028 37.4683 149.262 37.4991 144.5 37.4551C141.66 37.4287 139.501 36.1404 138.195 33.599C137.54 32.3195 137.337 30.9301 137.632 29.4747C138.05 27.4081 139.158 25.8516 140.96 24.8095C142.64 23.8378 144.438 23.596 146.312 24.1764C147.041 24.4006 147.464 24.3347 147.802 23.8818C147.886 23.7719 147.934 23.618 147.956 23.4773C148.097 22.677 148.18 21.868 148.365 21.0765C148.637 19.9025 149.148 18.8341 149.82 17.8492C151.306 15.6551 153.553 14.037 156.108 13.3203C157.493 12.9334 158.922 12.8103 160.408 13.0213C162.387 13.3027 164.172 14.0107 165.75 15.2242C167.426 16.5081 168.652 18.135 169.378 20.1268C169.598 20.7248 170.011 20.9578 170.644 20.8435C171.251 20.7336 171.853 20.5929 172.46 20.4961C172.816 20.439 173.181 20.4258 173.537 20.4566C175.753 20.6412 177.706 21.4239 179.284 23.042C180.278 24.062 180.973 25.2492 181.381 26.6255C181.799 28.0325 181.856 29.4439 181.513 30.8553C181.021 32.8779 179.944 34.5399 178.242 35.7755C176.664 36.9231 174.887 37.4683 172.944 37.4683C168.226 37.4683 163.512 37.4683 158.794 37.4683Z" fill="#E8EFFE"/>
<path d="M190.311 198.223H142.165C139.03 198.223 136.488 200.764 136.488 203.899C136.488 219.776 149.358 232.651 165.24 232.651H167.232C183.109 232.651 195.983 219.781 195.983 203.899C195.983 200.764 193.442 198.223 190.311 198.223Z" fill="#C1D4F5"/>
<path d="M79.9392 238.868L87.093 242.733L95.6582 226.869L88.3418 216.171L79.9392 238.868Z" fill="#FF5072" stroke="#271F4D" stroke-width="0.5" stroke-miterlimit="10"/>
<path d="M120.462 241.431H128.591V223.404L117.067 217.468L120.462 241.431Z" fill="#FF5072" stroke="#271F4D" stroke-width="0.5" stroke-miterlimit="10"/>
<path d="M126.888 240.617C127.698 240.17 128.194 239.453 128.495 238.824L130.118 248.745L103.512 248.801C103.621 246.258 105.379 244.07 107.865 243.43L117.23 241.761C118.845 241.474 120.033 240.148 120.201 238.574C122.202 240.884 125.023 241.646 126.888 240.617Z" fill="#FFD101" stroke="#271F4D" stroke-width="0.5"/>
<path d="M91.6044 191.23L82.8633 209.936C79.7591 216.582 83.2546 224.41 90.3117 226.63C95.6276 228.302 101.418 226.23 104.421 221.582L116.97 202.169C119.098 198.88 122.774 196.89 126.723 196.89H147.124C159.216 196.89 169.017 189.336 169.017 177.39H113.497C104.092 177.39 95.544 182.79 91.6044 191.23Z" fill="#393171"/>
<path d="M109.465 198.223V215.094C109.465 220.366 112.877 225.026 117.898 226.627C125.703 229.107 133.666 223.285 133.666 215.094V202.496C133.666 200.135 135.578 198.223 137.939 198.223H162.668C175.779 198.223 186.411 187.591 186.411 174.479H133.208C120.092 174.479 109.465 185.107 109.465 198.223Z" fill="#463D8A"/>
<path d="M145.602 120.387C142.926 125.003 141.528 136.162 141.5 140.872L142.253 143.13L146.517 140.371L159.394 131.508H170.096L183.726 138.197C184.562 135.967 186.815 130.96 187.952 127.348C189.374 122.833 187.321 114.952 185.732 111.106C184.144 107.26 180.13 102.995 175.364 99.818C170.598 96.6407 165.498 95.2193 155.715 95.7209C147.889 96.1223 142.926 103.497 142.173 109.768H145.192C146.307 109.322 148.277 115.772 145.602 120.387Z" fill="#271F4D"/>
<path d="M150.532 109.215C150.198 109.532 149.934 109.915 149.688 110.297C147.705 113.375 146.505 117.095 145.388 120.617C145.247 121.043 145.115 121.47 144.979 121.887C143.084 127.784 141.606 133.522 141.927 139.783C141.949 140.223 141.984 140.662 142.028 141.102C142.239 143.23 142.701 145.328 143.312 147.385C143.699 148.682 144.157 149.957 144.667 151.211C145.054 152.16 145.484 153.88 146.21 154.609C146.21 154.609 146.548 154.948 146.931 155.032C146.984 155.045 147.037 155.049 147.089 155.049C147.604 152.226 149.613 151.202 151.895 151.184C153.526 151.175 155.298 151.677 156.763 152.411C157.132 152.596 157.501 152.776 157.875 152.952C162.764 155.278 168.085 157.019 173.506 157.758C177.912 158.36 182.384 158.298 186.736 157.349C188.341 157.001 189.933 156.531 191.498 155.929L191.938 155.489C189.476 155.489 187.013 154.645 185 152.952C184.498 152.534 184.024 152.059 183.584 151.532C181.385 148.454 181.385 144.936 182.704 141.419C183.364 139.704 184.063 138.068 184.745 136.454C186.328 132.682 187.805 129.019 188.421 124.71C188.86 118.555 187.541 112.839 184.024 107.562C177.441 98.21 166.493 94.3143 155.91 95.6641C155.202 95.7521 154.494 95.8664 153.79 96.0071C152.568 96.2973 151.403 96.737 150.321 97.3086C149.908 97.524 149.508 97.7615 149.121 98.0165" stroke="white" stroke-miterlimit="10"/>
<path d="M152.295 153.686L136.739 178.876L128.587 159.815L148.769 131.715L152.295 153.686Z" fill="#4A94F3"/>
<path d="M101.119 176.036H146.329C147.678 176.036 148.773 177.131 148.773 178.48V179.584H101.119V176.036Z" fill="#759DD2" stroke="#271F4D" stroke-width="0.5" stroke-miterlimit="10"/>
<path d="M98.147 179.584H133.243C135.596 179.584 137.056 177.482 136.37 175.09L130.588 154.957C130.007 152.93 128.064 151.4 126.072 151.4H90.9756C88.6233 151.4 87.1635 153.501 87.8494 155.893L93.6314 176.027C94.2118 178.058 96.1508 179.584 98.147 179.584Z" fill="#759DD2" stroke="#271F4D" stroke-width="0.5" stroke-miterlimit="10"/>
<path d="M89.5098 238.673L90.5704 248.744H63.9426V248.633C63.9426 246.145 65.6285 243.971 68.0417 243.353L68.0417 243.353L76.343 241.225C78.0578 240.787 79.5231 239.686 80.4212 238.175C82.4301 240.683 85.3883 241.538 87.3195 240.472C88.1662 240.004 89.024 239.273 89.5098 238.673Z" fill="#FFD101" stroke="#271F4D" stroke-width="0.5"/>
<path d="M152.124 158.057L158.482 177.227H137.121V173.059C137.121 164.771 143.84 158.057 152.124 158.057Z" fill="#FF5072" stroke="#271F4D" stroke-width="0.5" stroke-miterlimit="10"/>
<path d="M159.651 183.51C184.709 183.51 203.269 171.305 197.685 158.501L196.291 155.3C195.667 153.875 194.26 152.952 192.703 152.952H153.21C149.956 152.952 147.775 156.289 149.077 159.266L159.651 183.51Z" fill="#9AC6FF"/>
<path d="M194.515 157.107L186.736 157.349L173.506 157.758L152.243 158.417L149.319 158.51L148.822 158.523L148.773 158.43L146.931 155.032L146.337 153.932C142.741 147.873 143.04 141.027 145.968 135.61C146.342 134.92 146.76 134.252 147.217 133.61C147.388 133.372 147.564 133.135 147.749 132.902C148.07 132.493 148.408 132.097 148.769 131.715C150.172 130.206 151.834 128.923 153.702 127.942C155.932 126.777 158.455 126.047 161.199 125.889C161.56 125.871 161.929 125.858 162.303 125.858C171.066 125.849 179.284 129.798 184.745 136.454C185.672 137.58 186.521 138.785 187.277 140.06L195.922 154.631C195.935 154.653 195.948 154.68 195.957 154.702C196.537 155.779 195.759 157.107 194.515 157.107Z" fill="#73B0FF"/>
<path d="M172.754 146.312L181.917 157.12" stroke="#271F4D" stroke-width="0.5" stroke-miterlimit="10" stroke-linecap="round" stroke-linejoin="round"/>
<path d="M153.351 117.675L153.632 127.177C153.702 129.608 155.224 131.556 157.013 131.504L158.117 131.473C159.902 131.42 161.305 129.384 161.234 126.953L160.944 117.244C159.893 118.431 158.543 119.157 157.062 119.201C155.69 119.245 154.401 118.673 153.351 117.675Z" fill="#FF5072" stroke="#271F4D" stroke-width="0.5" stroke-miterlimit="10"/>
<path d="M161.252 115.745C161.261 116.545 161.164 117.323 160.966 118.058C160.944 118.154 160.918 118.251 160.891 118.348C160.377 120.076 159.343 121.575 157.967 122.675C156.727 123.668 155.215 124.328 153.553 124.517C153.249 124.556 152.937 124.574 152.625 124.578C151.442 124.592 150.317 124.363 149.288 123.936C149.279 123.932 149.27 123.928 149.261 123.923C148.676 123.677 148.127 123.365 147.617 123C146.729 122.362 145.968 121.549 145.388 120.617C144.592 119.355 144.13 117.864 144.108 116.264L144.038 110.055L144.025 109.057C144.016 108.103 144.174 107.18 144.477 106.327C145.533 103.328 148.338 101.125 151.662 100.976C151.75 100.971 151.842 100.967 151.93 100.967H152.018L153.003 100.954C157.444 100.901 161.12 104.493 161.173 108.938L161.181 109.879L161.195 111.084L161.217 112.707L161.252 115.745Z" fill="#FF5072" stroke="#271F4D" stroke-width="0.5" stroke-miterlimit="10"/>
<path d="M152.075 114.72C152.457 114.72 152.766 114.411 152.766 114.03C152.766 113.649 152.457 113.34 152.075 113.34C151.694 113.34 151.385 113.649 151.385 114.03C151.385 114.411 151.694 114.72 152.075 114.72Z" fill="#271F4D"/>
<path d="M145.955 115.125C146.336 115.125 146.645 114.816 146.645 114.435C146.645 114.053 146.336 113.744 145.955 113.744C145.574 113.744 145.265 114.053 145.265 114.435C145.265 114.816 145.574 115.125 145.955 115.125Z" fill="#271F4D"/>
<path d="M150.053 120.854C150.822 120.823 151.539 120.639 152.133 120.313C152.234 120.256 152.269 120.133 152.216 120.032C152.159 119.931 152.036 119.896 151.935 119.948C151.398 120.243 150.739 120.414 150.035 120.441C149.332 120.467 148.663 120.349 148.105 120.093C148 120.045 147.876 120.093 147.828 120.195C147.78 120.296 147.828 120.423 147.929 120.472C148.554 120.749 149.288 120.881 150.053 120.854Z" fill="#271F4D"/>
<path d="M148.703 117.759L149.666 117.662C149.78 117.649 149.864 117.548 149.851 117.433C149.837 117.319 149.736 117.235 149.622 117.249L148.659 117.345C148.545 117.359 148.461 117.46 148.474 117.574C148.488 117.684 148.589 117.768 148.703 117.759Z" fill="#271F4D"/>
<path d="M143.202 110.293C142.776 110.407 142.367 110.06 142.389 109.62C142.49 107.87 142.895 106.199 143.55 104.66C144.706 101.934 146.663 99.6214 149.121 98.0165C149.508 97.7614 149.908 97.524 150.321 97.3086" stroke="white" stroke-miterlimit="10"/>
<path d="M159.484 118.607C161.67 118.607 163.442 116.835 163.442 114.65C163.442 112.465 161.67 110.693 159.484 110.693" fill="#FF5072"/>
<path d="M159.484 118.607C161.67 118.607 163.442 116.835 163.442 114.65C163.442 112.465 161.67 110.693 159.484 110.693" stroke="#271F4D" stroke-width="0.5" stroke-miterlimit="10" stroke-linecap="round" stroke-linejoin="round"/>
<path d="M150.497 98.9398C149.785 99.3927 145.352 103.763 144.794 104.467C143.668 105.891 142.89 107.69 142.547 109.33C142.543 109.347 142.538 109.365 142.53 109.378C142.367 109.919 142.881 110.42 143.422 110.258C145.555 109.616 147.441 108.358 148.329 106.74C148.496 106.437 148.624 106.124 148.734 105.808L149.015 106.397C149.798 108.033 150.84 109.435 152.027 110.543C154.797 113.129 158.354 114.1 161.23 112.698L162.14 112.254L162.465 112.087C162.465 111.898 162.461 111.709 162.448 111.515C162.786 111.607 162.892 111.607 163.032 111.603C163.331 111.44 163.608 111.234 163.864 111.001C166.607 108.525 162.918 105.166 160.759 103.368C158.029 100.241 154.542 99.1289 150.497 98.9398Z" fill="#271F4D"/>
<path d="M150.427 170.711C148.18 172.012 146.667 174.444 146.667 177.227" stroke="#271F4D" stroke-width="0.5" stroke-miterlimit="10" stroke-linecap="round"/>
<path d="M140.103 176.981V173.938C140.103 168.622 143.07 164.195 147.001 163.201" stroke="#271F4D" stroke-width="0.5" stroke-miterlimit="10" stroke-linecap="round"/>
<path d="M143.435 177.227V176.075C143.435 171.793 145.713 168.187 148.804 167.123" stroke="#271F4D" stroke-width="0.5" stroke-miterlimit="10" stroke-linecap="round"/>
<path d="M99.0352 118.977V140.473C99.0352 140.768 98.8901 141.005 98.679 141.146C98.3009 141.401 97.7821 141.234 97.5578 140.843L93.7325 134.19C93.5874 133.935 93.3148 133.777 93.0202 133.777H75.8457C74.32 133.777 73.0845 132.541 73.0845 131.015V118.981C73.0845 117.451 74.3244 116.215 75.8501 116.215H96.2695C97.7996 116.211 99.0352 117.447 99.0352 118.977Z" fill="#54BA56"/>
<path d="M81.1484 122.424C82.5687 122.428 83.6943 121.778 84.7012 120.911C84.7803 120.845 84.8946 120.837 84.9782 120.898C85.3827 121.193 85.7652 121.487 86.1742 121.738C86.8952 122.186 87.6823 122.45 88.5485 122.406C88.7156 122.398 88.8343 122.419 88.8431 122.631C88.9134 124.323 88.7552 125.972 87.889 127.48C87.2426 128.602 86.2929 129.353 85.0749 129.767C84.9474 129.811 84.7803 129.784 84.6484 129.74C82.7357 129.116 81.6981 127.713 81.2056 125.836C80.933 124.798 80.8714 123.743 80.9242 122.631C80.933 122.512 81.0341 122.424 81.1484 122.424Z" fill="white"/>
<path d="M147.907 129.485C147.758 130.62 147.687 131.767 147.749 132.902C147.564 133.135 147.388 133.372 147.217 133.61C147.16 132.198 147.309 130.791 147.564 129.428C147.934 127.529 148.518 125.691 149.262 123.923C149.27 123.928 149.279 123.932 149.288 123.936C148.642 125.739 148.162 127.599 147.907 129.485Z" fill="white"/>
<path d="M167.368 130.448C169.237 129.485 170.881 128.065 172.288 126.469C173.673 124.855 174.856 123.031 175.546 121.026C175.889 120.023 176.122 118.981 176.14 117.926C176.166 117.398 176.105 116.875 176.026 116.356C175.916 115.846 175.788 115.332 175.573 114.852C175.168 113.885 174.548 112.997 173.739 112.329C172.935 111.651 171.959 111.203 170.925 110.965C168.85 110.499 166.647 110.781 164.602 111.405C164.092 111.568 163.582 111.744 163.085 111.95C162.589 112.157 162.109 112.39 161.604 112.606C160.597 113.028 159.524 113.309 158.429 113.357C157.334 113.419 156.235 113.199 155.224 112.799C154.208 112.394 153.298 111.77 152.484 111.053C150.871 109.598 149.631 107.765 148.734 105.799C149.653 107.751 150.919 109.563 152.542 110.987C153.359 111.687 154.27 112.293 155.272 112.676C156.27 113.058 157.347 113.256 158.42 113.182C159.489 113.12 160.535 112.83 161.516 112.403C162.004 112.188 162.492 111.942 162.993 111.726C163.494 111.511 164.004 111.322 164.523 111.15C166.59 110.491 168.828 110.165 171 110.623C172.077 110.851 173.124 111.313 173.986 112.021C174.856 112.724 175.524 113.652 175.969 114.672C176.206 115.178 176.351 115.719 176.47 116.264C176.562 116.813 176.628 117.367 176.61 117.926C176.606 119.038 176.377 120.137 176.034 121.184C175.34 123.286 174.148 125.176 172.746 126.856C171.317 128.518 169.655 130.009 167.68 131.059C167.513 131.147 167.302 131.086 167.21 130.914C167.122 130.747 167.183 130.536 167.355 130.444C167.355 130.444 167.355 130.444 167.359 130.444L167.368 130.448Z" fill="white"/>
<path d="M178.11 116.448C178.273 115.393 178.33 114.316 178.211 113.247C178.097 112.183 177.806 111.115 177.257 110.17C176.703 109.233 175.916 108.442 174.979 107.892C174.047 107.338 172.992 107.03 171.932 106.907C169.8 106.674 167.672 107.087 165.693 107.8C165.196 107.98 164.708 108.182 164.233 108.406C163.754 108.639 163.297 108.868 162.808 109.048C161.841 109.418 160.812 109.642 159.775 109.642C158.737 109.646 157.704 109.427 156.754 109.004C155.8 108.591 154.929 107.989 154.155 107.294C152.612 105.887 151.394 104.133 150.506 102.242C151.368 104.146 152.564 105.922 154.103 107.356C154.876 108.068 155.743 108.683 156.71 109.119C157.668 109.558 158.724 109.796 159.783 109.809C160.843 109.822 161.898 109.607 162.892 109.242C163.389 109.066 163.873 108.829 164.339 108.613C164.813 108.398 165.297 108.209 165.79 108.037C167.751 107.369 169.852 107.004 171.897 107.268C172.913 107.404 173.906 107.721 174.768 108.253C175.634 108.776 176.351 109.536 176.852 110.403C177.354 111.278 177.613 112.28 177.71 113.296C177.811 114.312 177.745 115.345 177.578 116.356C177.261 118.212 176.584 119.997 175.696 121.663C175.845 121.817 175.995 121.975 176.144 122.134C177.072 120.357 177.789 118.449 178.11 116.448Z" fill="white"/>
<path d="M175.683 121.668C175.599 121.821 175.52 121.98 175.432 122.129C174.412 123.928 173.286 125.541 171.848 127.027L170.938 128.109C170.806 128.25 171.571 127.419 171.712 127.551C171.853 127.683 171.989 127.691 172.121 127.551C173.581 126.012 174.948 124.293 175.977 122.428C176.03 122.332 176.083 122.23 176.135 122.129C175.986 121.98 175.837 121.821 175.683 121.668Z" fill="white"/>
<path d="M163.217 113.34C163.974 113.599 164.695 113.955 165.359 114.408C166.022 114.857 166.62 115.424 167.06 116.11C167.487 116.8 167.72 117.627 167.676 118.453C167.627 119.276 167.368 120.076 166.985 120.797C166.225 122.244 165.112 123.457 163.943 124.561C162.76 125.66 161.485 126.649 160.179 127.586C160.025 127.696 159.805 127.661 159.695 127.507C159.585 127.353 159.621 127.133 159.774 127.023C159.779 127.019 159.779 127.019 159.783 127.019L159.788 127.014C161.107 126.135 162.399 125.212 163.591 124.174C164.774 123.136 165.895 121.989 166.673 120.63C167.065 119.953 167.337 119.205 167.408 118.436C167.473 117.662 167.284 116.879 166.902 116.198C166.506 115.521 165.939 114.945 165.301 114.479C164.668 114.008 163.96 113.626 163.217 113.34Z" fill="white"/>
<path d="M152.638 100.536C153.491 101.512 154.529 102.321 155.641 102.981C156.758 103.631 157.985 104.106 159.256 104.335C160.526 104.568 161.832 104.555 163.103 104.352C164.365 104.102 165.6 103.697 166.836 103.302C168.067 102.902 169.294 102.466 170.556 102.128C171.813 101.785 173.128 101.565 174.447 101.648C175.766 101.723 177.05 102.097 178.259 102.598C179.481 103.086 180.611 103.75 181.737 104.405L181.504 104.779C180.4 104.115 179.297 103.442 178.11 102.95C176.931 102.444 175.696 102.066 174.421 101.974C173.145 101.873 171.866 102.07 170.617 102.387C169.369 102.708 168.137 103.121 166.897 103.504C165.657 103.886 164.413 104.269 163.125 104.511C161.832 104.695 160.509 104.691 159.229 104.44C157.95 104.19 156.723 103.697 155.611 103.025C154.502 102.352 153.478 101.525 152.638 100.536Z" fill="white"/>
<defs>
<linearGradient id="paint0_linear_1771_9374" x1="246.224" y1="248.527" x2="109.465" y2="248.527" gradientUnits="userSpaceOnUse">
<stop offset="6.92613e-08" stop-color="white" stop-opacity="0"/>
<stop offset="0.9659" stop-color="#CBECFD"/>
</linearGradient>
</defs>
</svg>
